<svg width="20" height="20" viewBox="0 0 20 20" fill="none" xmlns="http://www.w3.org/2000/svg">
<path d="M8.45817 17.5V13.75" stroke="#D0D4E6" stroke-width="1.3" stroke-linecap="round" stroke-linejoin="round"/>
<path d="M8.4585 13.75H10.1252C10.8155 13.75 11.3752 14.3096 11.3752 15V15C11.3752 15.6904 10.8155 16.25 10.1252 16.25H8.4585" stroke="#D0D4E6" stroke-width="1.3" stroke-linecap="round" stroke-linejoin="round"/>
<path d="M15.5415 15.625H16.6665V17.125C16.6665 17.3321 16.4986 17.5 16.2915 17.5H14.979C14.6309 17.5 14.2971 17.3617 14.0509 17.1156C13.8048 16.8694 13.6665 16.5356 13.6665 16.1875V15.0625C13.6665 14.7144 13.8048 14.3806 14.0509 14.1344C14.2971 13.8883 14.6309 13.75 14.979 13.75H16.229" stroke="#D0D4E6" stroke-width="1.3" stroke-linecap="round" stroke-linejoin="round"/>
<path d="M3.3335 16.25V16.3501C3.3335 17.0404 3.89314 17.6001 4.5835 17.6001V17.6001C5.27385 17.6001 5.8335 17.0404 5.8335 16.3501V13.75" stroke="#D0D4E6" stroke-width="1.3" stroke-linecap="round" stroke-linejoin="round"/>
<path d="M16.6668 10.8333V7.01184C16.6668 6.79083 16.579 6.57887 16.4228 6.42259L12.7442 2.74408C12.588 2.5878 12.376 2.5 12.155 2.5H5.00016C4.07969 2.5 3.3335 3.24619 3.3335 4.16667V10.8333" stroke="#D0D4E6" stroke-width="1.3" stroke-linecap="round" stroke-linejoin="round"/>
<path d="M16.6665 7.5H13.3332C12.4127 7.5 11.6665 6.75381 11.6665 5.83333V2.5" stroke="#D0D4E6" stroke-width="1.3" stroke-linecap="round" stroke-linejoin="round"/>
</svg>
