<svg width="20" height="20" viewBox="0 0 20 20" fill="none" xmlns="http://www.w3.org/2000/svg">
<path d="M2.08317 13.75V17.5" stroke="#D0D4E6" stroke-width="1.3" stroke-linecap="round" stroke-linejoin="round"/>
<path d="M4.58317 13.75V17.5" stroke="#D0D4E6" stroke-width="1.3" stroke-linecap="round" stroke-linejoin="round"/>
<path d="M2.0835 15.6252H4.5835" stroke="#D0D4E6" stroke-width="1.3" stroke-linecap="round" stroke-linejoin="round"/>
<path d="M17.0832 13.75V17.5" stroke="#D0D4E6" stroke-width="1.3" stroke-linecap="round" stroke-linejoin="round"/>
<path d="M8.02067 17.5V13.75" stroke="#D0D4E6" stroke-width="1.3" stroke-linecap="round" stroke-linejoin="round"/>
<path d="M6.5625 13.7502H9.47917" stroke="#D0D4E6" stroke-width="1.3" stroke-linecap="round" stroke-linejoin="round"/>
<path d="M14.5832 13.75V17.5" stroke="#D0D4E6" stroke-width="1.5" stroke-linecap="round" stroke-linejoin="round"/>
<path d="M11.4582 17.5V13.75" stroke="#D0D4E6" stroke-width="1.5" stroke-linecap="round" stroke-linejoin="round"/>
<path d="M11.4585 13.75L13.021 15.625L14.5835 13.75" stroke="#D0D4E6" stroke-width="1.5" stroke-linecap="round" stroke-linejoin="round"/>
<path d="M17.0835 17.5002H18.7502" stroke="#D0D4E6" stroke-width="1.5" stroke-linecap="round" stroke-linejoin="round"/>
<path d="M16.6668 10.8333V7.01184C16.6668 6.79083 16.579 6.57887 16.4228 6.42259L12.7442 2.74408C12.588 2.5878 12.376 2.5 12.155 2.5H5.00016C4.07969 2.5 3.3335 3.24619 3.3335 4.16667V10.8333" stroke="#D0D4E6" stroke-width="1.5" stroke-linecap="round" stroke-linejoin="round"/>
<path d="M16.6665 7.5H13.3332C12.4127 7.5 11.6665 6.75381 11.6665 5.83333V2.5" stroke="#D0D4E6" stroke-width="1.5" stroke-linecap="round" stroke-linejoin="round"/>
</svg>
