<svg width="20" height="20" viewBox="0 0 20 20" fill="none" xmlns="http://www.w3.org/2000/svg">
<path d="M3.33317 17.5V13.75" stroke="#D0D4E6" stroke-width="1.3" stroke-linecap="round" stroke-linejoin="round"/>
<path d="M3.3335 13.75H5.00016C5.69052 13.75 6.25016 14.3096 6.25016 15V15C6.25016 15.6904 5.69052 16.25 5.00016 16.25H3.3335" stroke="#D0D4E6" stroke-width="1.3" stroke-linecap="round" stroke-linejoin="round"/>
<path d="M15.4168 15.9581L13.3335 15.9582" stroke="#D0D4E6" stroke-width="1.3" stroke-linecap="round" stroke-linejoin="round"/>
<path d="M15.8335 13.75H13.3335V17.5" stroke="#D0D4E6" stroke-width="1.3" stroke-linecap="round" stroke-linejoin="round"/>
<path d="M16.6668 10.8333V7.01184C16.6668 6.79083 16.579 6.57887 16.4228 6.42259L12.7442 2.74408C12.588 2.5878 12.376 2.5 12.155 2.5H5.00016C4.07969 2.5 3.3335 3.24619 3.3335 4.16667V10.8333" stroke="#D0D4E6" stroke-width="1.3" stroke-linecap="round" stroke-linejoin="round"/>
<path d="M16.6665 7.5H13.3332C12.4127 7.5 11.6665 6.75381 11.6665 5.83333V2.5" stroke="#D0D4E6" stroke-width="1.3" stroke-linecap="round" stroke-linejoin="round"/>
<path fill-rule="evenodd" clip-rule="evenodd" d="M8.3335 13.75H9.5835C10.504 13.75 11.2502 14.4962 11.2502 15.4167V15.8333C11.2502 16.7538 10.504 17.5 9.5835 17.5H8.3335V13.75Z" stroke="#D0D4E6" stroke-width="1.5" stroke-linecap="round" stroke-linejoin="round"/>
</svg>
