<svg width="20" height="20" viewBox="0 0 20 20" fill="none" xmlns="http://www.w3.org/2000/svg">
<path d="M5.8335 13.75H4.271C3.75323 13.75 3.3335 14.1697 3.3335 14.6875V16.5625C3.3335 17.0803 3.75323 17.5 4.271 17.5H5.8335" stroke="#D0D4E6" stroke-width="1.3" stroke-linecap="round" stroke-linejoin="round"/>
<path d="M8.33352 17.5H9.79769C10.0469 17.5 10.2859 17.401 10.4621 17.2248C10.6383 17.0486 10.7373 16.8096 10.7373 16.5604V16.5604C10.7373 16.0414 10.3166 15.6207 9.79769 15.6207H9.17269C8.92461 15.6207 8.68669 15.5222 8.51127 15.3468C8.33585 15.1714 8.2373 14.9334 8.2373 14.6854V14.6854C8.23731 14.4373 8.33586 14.1994 8.51128 14.024C8.68669 13.8485 8.92461 13.75 9.17269 13.75H10.4595" stroke="#D0D4E6" stroke-width="1.3" stroke-linecap="round" stroke-linejoin="round"/>
<path d="M13.9373 17.5L12.9165 13.75" stroke="#D0D4E6" stroke-width="1.3" stroke-linecap="round" stroke-linejoin="round"/>
<path d="M14.8125 17.5002H13.9375" stroke="#D0D4E6" stroke-width="1.3" stroke-linecap="round" stroke-linejoin="round"/>
<path d="M15.8333 13.75L14.8125 17.5" stroke="#D0D4E6" stroke-width="1.3" stroke-linecap="round" stroke-linejoin="round"/>
<path d="M16.6668 10.8333V7.01184C16.6668 6.79083 16.579 6.57887 16.4228 6.42259L12.7442 2.74408C12.588 2.5878 12.376 2.5 12.155 2.5H5.00016C4.07969 2.5 3.3335 3.24619 3.3335 4.16667V10.8333" stroke="#D0D4E6" stroke-width="1.3" stroke-linecap="round" stroke-linejoin="round"/>
<path d="M16.6665 7.5H13.3332C12.4127 7.5 11.6665 6.75381 11.6665 5.83333V2.5" stroke="#D0D4E6" stroke-width="1.5" stroke-linecap="round" stroke-linejoin="round"/>
</svg>
