<svg width="20" height="20" viewBox="0 0 20 20" fill="none" xmlns="http://www.w3.org/2000/svg">
<path d="M5.2085 15.625H6.3335V17.125C6.3335 17.3321 6.1656 17.5 5.9585 17.5H4.646C4.2979 17.5 3.96406 17.3617 3.71792 17.1156C3.47178 16.8694 3.3335 16.5356 3.3335 16.1875V15.0625C3.3335 14.3376 3.92112 13.75 4.646 13.75H5.896" stroke="#D0D4E6" stroke-width="1.3" stroke-linecap="round" stroke-linejoin="round"/>
<path d="M11.2502 17.5V13.75" stroke="#D0D4E6" stroke-width="1.3" stroke-linecap="round" stroke-linejoin="round"/>
<path d="M13.3333 15.9581L11.25 15.9582" stroke="#D0D4E6" stroke-width="1.3" stroke-linecap="round" stroke-linejoin="round"/>
<path d="M11.25 13.7502H13.75" stroke="#D0D4E6" stroke-width="1.3" stroke-linecap="round" stroke-linejoin="round"/>
<path d="M8.75016 17.5V13.75" stroke="#D0D4E6" stroke-width="1.3" stroke-linecap="round" stroke-linejoin="round"/>
<path d="M16.6668 10.8333V7.01184C16.6668 6.79083 16.579 6.57887 16.4228 6.42259L12.7442 2.74408C12.588 2.5878 12.376 2.5 12.155 2.5H5.00016C4.07969 2.5 3.3335 3.24619 3.3335 4.16667V10.8333" stroke="#D0D4E6" stroke-width="1.3" stroke-linecap="round" stroke-linejoin="round"/>
<path d="M16.6665 7.5H13.3332C12.4127 7.5 11.6665 6.75381 11.6665 5.83333V2.5" stroke="#D0D4E6" stroke-width="1.5" stroke-linecap="round" stroke-linejoin="round"/>
</svg>
