<svg width="20" height="20" viewBox="0 0 20 20" fill="none" xmlns="http://www.w3.org/2000/svg">
<path d="M3.33317 17.5V13.75" stroke="#D0D4E6" stroke-width="1.3" stroke-linecap="round" stroke-linejoin="round"/>
<path d="M3.3335 13.75H5.00016C5.69052 13.75 6.25016 14.3096 6.25016 15V15C6.25016 15.6904 5.69052 16.25 5.00016 16.25H3.3335" stroke="#D0D4E6" stroke-width="1.3" stroke-linecap="round" stroke-linejoin="round"/>
<path d="M15.625 15.625H16.75V17.125C16.75 17.3321 16.5821 17.5 16.375 17.5H15.0625C14.7144 17.5 14.3806 17.3617 14.1344 17.1156C13.8883 16.8694 13.75 16.5356 13.75 16.1875V15.0625C13.75 14.3376 14.3376 13.75 15.0625 13.75H16.3125" stroke="#D0D4E6" stroke-width="1.3" stroke-linecap="round" stroke-linejoin="round"/>
<path d="M11.4582 13.75V17.5" stroke="#D0D4E6" stroke-width="1.3" stroke-linecap="round" stroke-linejoin="round"/>
<path d="M8.54167 17.5V13.75" stroke="#D0D4E6" stroke-width="1.3" stroke-linecap="round" stroke-linejoin="round"/>
<path d="M11.4582 17.5L8.5415 13.75" stroke="#D0D4E6" stroke-width="1.3" stroke-linecap="round" stroke-linejoin="round"/>
<path d="M16.6668 10.8333V7.01184C16.6668 6.79083 16.579 6.57887 16.4228 6.42259L12.7442 2.74408C12.588 2.5878 12.376 2.5 12.155 2.5H5.00016C4.07969 2.5 3.3335 3.24619 3.3335 4.16667V10.8333" stroke="#D0D4E6" stroke-width="1.5" stroke-linecap="round" stroke-linejoin="round"/>
<path d="M16.6665 7.5H13.3332C12.4127 7.5 11.6665 6.75381 11.6665 5.83333V2.5" stroke="#D0D4E6" stroke-width="1.5" stroke-linecap="round" stroke-linejoin="round"/>
</svg>
