<svg id="colombia-map" version="1.1" xmlns="http://www.w3.org/2000/svg" xmlns:xlink="http://www.w3.org/1999/xlink" x="0px" y="0px"
	 viewBox="0 0 800 533" style="enable-background:new 0 0 800 533;" xml:space="preserve">
<path class="co-path co-path--empty" d="M0,0"/>
<path class="co-path" d="M195.9,55.1l-1.9-9.8l5.5-4.7l0.6,2L195.9,55.1z" data-depto="San Andrés y Providencia" data-depto-slug="san-andres-providencia" data-region="insular"/>
<path class="co-path" d="M293,316.1l-2.4-0.5l0.6-1.4l2.5,1.4L293,316.1z M345,297.1l-1.1,3.5l2,1.8l0.4,3.2l6.7,6.3l0.7,1.5l-1.3,4.3
	l0.8,1.6l-1.5,1.4l-3.6-1.9l-2.6,2.1l-3.1,1.4l-3.7,0.5l-3-1.9l-0.4,1.6l1.1,2.4l-0.8,2.3l-2.2,3l-2.4-0.5l-0.9,0.9v2.6l-1,1.3
	l0.7,2.8l2.2,1.7l2.9,4.2l1.8,1.4l6.1,1.9l-2.4,3.4l-1.8,4.2l-0.4,4l1.3,1.7l2.9,0.2l3,2.7l-4.5,2.1l-4.2-0.1l-4.2-1.4l-1.3-1.6
	l-0.2-3.9l0.8-2.1l-2.1-4l-2.5-0.8l-2.3,3.2l-5,0.5l-0.4-5.7l2.1-1.7l0.3-1.5l-2.8-3.7l-8.8,2l-2.7-0.8l1.3-5.1l2.5-3.2l-3.9-3.3
	l0.5-3l-3.5-1.5l-5.8,1.9l-3.6,0.4l-2.9-1l-3.3-6.1l0.5-2.3l-0.6-3l-3.8-3l3.7-0.8l1.9,1.2l-0.5,1.7l3.8,0.1l0.7-1.3l-2.7-0.9
	l-0.7-2l0.7-0.4l2.7,3.2l0.1-0.2l-1.4-1.6l0.4-3.5l2.3-2v-1.7l2,0.6l0.6-2.5l-2.9-0.1l4.5-4.7l3.2-5l3,4.2l1.3-0.4l1.7,1.6l4.6-2
	l2.8,0.7l3.8,2.2l2.3-0.9l1-1.8l2.6,2l4.1,0.2l2.6-2l0.9-4.2l5.4,1.1L345,297.1z" data-depto="Cauca" data-depto-slug="cauca" data-region="pacifica"/>
<path class="co-path" d="M281.1,312.8l1.8,0.4l1.4,3l-0.3,1.9l-1.5-0.2l-1.8-2.4L281.1,312.8z M314,383.4l-3.1,0.6l-4.7-1.2l-1.9-1
	l-1.3-7.3l-2.3-0.2l-3.1-1.8l-0.8-3.2l-1.6-0.7l-3.6,1l-1.8-1.6l-6.3-1.7l-3.9-3l-3.7-1.7l-2.8-3.2l-3.1-0.5l-0.9-2l-1.9-0.1
	L264,352l-1.8-1.2l-1.1-3.8l-1,0.4l-3.7-2.8l5.3-5.5l2.6-0.3l5.6,1.5l0.7-4.2l-1.3,0.7l0.2-3.1l-1-0.9l-1.4,1.4l-1.1-6.3l4.3-7.9
	l3.9-4.2l2.9-1.7l1.7,3.1l0.2-2.7l2.6,3.6l2.9,0.1l-0.5-4l0.9-0.1l3.6,2.7l0.6,3l-0.5,2.3l3.3,6.1l2.9,1l3.6-0.4l5.8-1.9l3.5,1.5
	l-0.5,3l3.9,3.3l-2.5,3.2l-1.3,5.1l2.7,0.8l8.8-2l2.8,3.7l-0.3,1.5l-2.1,1.7l0.4,5.7l-2,2.3l-3.4,1.6v3.4l1.6,1l-1.7,4.7L310,373
	l3.9,3.4l-0.5,1.1l1.2,4.7L314,383.4z" data-depto="Nariño" data-depto-slug="narino" data-region="pacifica"/>
<path class="co-path" d="M306.8,265.1l0.6,0.6l-6.3,0.4l3.9-2.6L306.8,265.1z M304.3,268.5l2.7-2.2l1.9,0.4l-2,0.4L304.3,268.5z
	 M345.1,242.1l-2,1.9l-0.9,2.4l-3.6,3.5l-0.4,2.2l-3.7,3.6l-0.5,3.5l-1,1.9l-2.1,0.3l1.5,2.2v2.5l1.7,1.2l-4.7,4.5l-2.1-0.2
	l-1.9,1.8l-4.9-1.4l-1.9-2.4l-3.3,0.5l-1.8-1.9h-2.7l-1.2-2.3l-2.5-0.8l-1.5-2.4l0.8-1.2l1.2-4.8l-0.2-6.2l1.7,0.5l-2-2.4l-0.8-5.6
	l0.2-7.7l-1.4-6.4l-1.6-1.1L301,228l1.9-3.1l2.6-1l1.4,0.6l2.8-2.8l0.5-2.6l-3.2-7.3l-0.4,0.9l-3.4-5.8l0.2-3.4l1.8,1.9l1-1.9
	l-0.5-2.6l1.7-4.7l-2.1-2.8l0.1-1.7l-1.5-0.9l-2.3,1.7l-1-4.2l-3.2-2.3l-0.3-2.2l1.2-0.9l-1.1-2.4l-6.1-5.5l2.3-7.3l1.3,0.1l1.2-2.4
	l-1.1-3.5l0.9-1.5l2.1,1.8l1.6,3.7l1,0.3l2.1-2l5.1-3.4l-1.2-2l1.8-3.2l1.5-1.2l3-0.4l-1.8-5l-2.7-5l-1.2-0.3l-1.7-5.6l-2-0.5
	l3.7-6.2l2.7,5.6l4.1,2.7l2.4,4l2,0.6l0.9,5.2l-1.5,2.6l-0.6,3l-2.9,1.7l0.3,2.7l6.9,5.8l5.4,6.4l3.1,1.6l1.7,1.7l0.7,5.3l-1.3,2.5
	l-4.1-1.1l-4.4,0.7l1,3.4l-1.2,1.5l-4.1,0.9l1,4.1l1-0.6l0.3,3.4l3.1,3l-0.4,5l3,4.5l3.9,0.2l5.4-0.8l3.3,0.1l1.8,4.7l3.2,1.8
	L343,217l1.3,4l-0.3,2.5l1.6,2l-1.5,3.7l-2.1,1.4l-0.5,3l2.5,4L345.1,242.1z" data-depto="Valle del Cauca" data-depto-slug="valle-del-cauca" data-region="pacifica"/>
<path class="co-path" d="M179.6,272.6l0.1,0.4l-1.1,0.4l0.5-0.7L179.6,272.6z" data-depto="Chocó" data-depto-slug="choco" data-region="pacifica"/>
<path class="co-path" d="M384.8,234.4l0.4,5.5l-0.8,4.3v4.9l-2,2.4l1,2.5l-0.7,1v4.3l-2.1,4.7l0.2,1.2l2.9-0.4l3.9,2.2l3-1.8l2,3
	l-1.3,5.6l0.6,1.1l-1.5,5.3l-3.2,3l-2.9,4.5l-0.1,2.2l-4.1,5l-1.7,0.4l-3.2-1l1.1-3.7h-2.9l-1.3,1.4l-2.4,0.4l-1.7-1.1l-4.8,1.5
	l-1.9,2.5l-3.2,6.3l-6.2,5.4l-3.6-1.7l-1.7,0.6l-0.4-3.2l-2-1.8l1.1-3.5l0.9-3.1l-0.1-3.8l1.6-3.5l1.1-4.6l3.1-4.7l2.9-6.3l4.8-6.6
	l0.6-4l3-5l1.4-0.7l1.3-2.9l0.4-2.5l1.5-2.9l-0.7-1.3l1.1-2.7l-0.9-1l1.6-2.2l3.7-1.2l1.1,0.4l2.1-3.3l3.7-1.2l3.2-0.2L384.8,234.4z
	" data-depto="Tolima" data-depto-slug="tolima" data-region="andina"/>
<path class="co-path" d="M345.4,362.6l-3-2.7l-2.9-0.2l-1.3-1.7l0.4-4l1.8-4.2l2.4-3.4l5.6,0.1l3.6-3.2l6.4-8.6l2.3-2.1l3.9-6.5l2.3-1.7
	l2-2.8l1.8-4.5l1.9,0.6l3.5-2.3l1.3-1.7l-1.9-2.9l2.4-4.3l2.4-1.7l5,1.3l4,5.6l-1.7,7.8l0.2,4.4l3,4.1l-2.1,4.2l0.3,2.4l2.9,3.6
	l17.8,6.3l7.3,0.2l3.4,5.7l3.6,4l0.6,2.9l7.5,7.3l2.8,1.3l2.1-0.7l3.5-2.9l0.7-3.4l1.6-1.2l1.7,1.4l0.7-1.4l2,0.2l3.8,2.6l2.1,0.6
	l1.7,1.7l0.5,2.4l2.7,2v2.1l2.2,2.3l4,0.8l2.1,1.4l1.2,2.6l2,1.1l-0.3,1.6l2.8,2.1l-0.3,1.4l2-0.1l2.9,3.5l4.5,2.4l3.5-0.4l3,1.8
	l-2,2l-7.1,3.4l-3,2.6l-1.4,2.9l-2.1,0.7l-6,0.6l-2.7,2l-3.1,4.2l-0.3,3.7l-2.5,1.2l-2.9-2.2l-3.9,3.9l-2-0.8l-3.2-2.6l-1.8-0.2
	l-3.2,1.1l-3.4-2.2l-2.5,2l-3.7,0.3l-3.8-2.9l-4.4,0.7l-2.6-0.6l-0.9-1.6l-4-2.3l-4.1,0.2l-4.4-1.7l-3.2-2.7L400,401l-1.5-2.6
	l-2.7-0.3l-0.9-1.2l-1.7,1.1l-3.7-0.7l-2.1-1.4l-1-3.9l0.4-2.3l-1.8-1.4l-3.4-0.7l-3.2-1.5l-1-6l-6.2-1.4l-0.3-3.1l-1.2-3l-1.9-1
	l-4.3,0.1l-4.2-3h-3.4l-4-1.2l-2.1-3.9L345.4,362.6z" data-depto="Caquetá" data-depto-slug="caqueta" data-region="amazonia"/>
<path class="co-path" d="M380.3,305l-2.4,1.7l-2.4,4.3l1.9,2.9l-1.3,1.7l-3.5,2.3l-1.9-0.6l-1.8,4.5l-2,2.8l-2.3,1.7l-3.9,6.5l-2.3,2.1
	l-6.4,8.6l-3.6,3.2l-5.6-0.1l-6.1-1.9l-1.8-1.4l-2.9-4.2l-2.2-1.7l-0.7-2.8l1-1.3v-2.6l0.9-0.9l2.4,0.5l2.2-3l0.8-2.3l-1.1-2.4
	l0.4-1.6l3,1.9l3.7-0.5l3.1-1.4l2.6-2.1l3.6,1.9l1.5-1.4l-0.8-1.6l1.3-4.3L353,312l-6.7-6.3l1.7-0.6l3.6,1.7l6.2-5.4l3.2-6.3
	l1.9-2.5l4.8-1.5l1.7,1.1l2.4-0.4l1.3-1.4h2.9l-1.1,3.7l3.2,1l1.7-0.4l4.1-5l0.1-2.2l2.9-4.5l3.2-3l1,1.3l1.1,0.8l-1.4,3.6l-2.2,3
	l-1.1,6.8l-0.9,1.5l-4.3,3.1L380.3,305z" data-depto="Putumayo" data-depto-slug="putumayo" data-region="amazonia"/>
<path class="co-path" d="M345.4,362.6l4.3,0.7l2.1,3.9l4,1.2h3.4l4.2,3l4.3-0.1l1.9,1l1.2,3l0.3,3.1l6.2,1.4l1,6l3.2,1.5l3.4,0.7
	l1.8,1.4l-0.4,2.3l1,3.9l2.1,1.4l3.7,0.7l1.7-1.1l0.9,1.2l2.7,0.3l1.5,2.6l3.7,0.6l3.2,2.7l4.4,1.7l-16.5,5.2l0,0l-3.6-3.2l-3.2-3.6
	l-4.5-0.8l1.1-1.1l-2.1-3.2l-1.4,1.6l-1.8-0.4l-3.5-2.3l-2.7-2.7l-2.4-0.3l-1.8,2.2l-4.1-1.4l-6.8-4.5l-4.3,0.1l-4.1-2.9l-3.8-5.5
	l-2,0.4l-0.8-1.5l-2.4-0.2l-2.6-1.6l-3.2,1.7l0.2,4.5l-5.3,0.9l-4.2-1.6l-0.3,1.4l-4.9-0.4l-1.4-1.2l-3-0.6l-1.8-1.5l0.6-1.2
	l-1.2-4.7l0.5-1.1L310,373l4.5-5.6l1.7-4.7l-1.6-1v-3.4l3.4-1.6l2-2.3l5-0.5l2.3-3.2l2.5,0.8l2.1,4l-0.8,2.1l0.2,3.9l1.3,1.6
	l4.2,1.4l4.2,0.1L345.4,362.6z" data-depto="Huila" data-depto-slug="huila" data-region="andina"/>
<path class="co-path" d="M411.2,406l4.1-0.2l4,2.3l0.9,1.6l2.6,0.6l4.4-0.7l3.8,2.9l3.7-0.3l2.5-2l3.4,2.2l3.2-1.1l1.8,0.2l3.2,2.6
	l2,0.8l3.9-3.9l2.9,2.2l2.5-1.2l0.3-3.7l3.1-4.2l2.7-2l5.8-0.4l2.1-0.7l1.4-2.9l3-2.6l7.1-3.4l2-2l1.6,1.1l2.8-0.5l1,2.4l2.9,1.2
	l1.3-0.4l1.6,2l0.1,2.7l2.6,5.1l1.5,0.4l1.3-1.3l7.8,2.4l1.6,3.2l2.8,0.3l2.2-2.2l1.9,0.6l-2.7,4l1.9,0.7l0.2,4.2l-1.2,1l1.8,3
	l-2,2.4l1.7,1.6l1.1-0.9v2.4l1.5,1.1l2-0.8l-1.6-2.1l6.8-1.6l-1.5,3.2l4.6,0.4l1.9-1.6l2.1,1.4l0.9,3.8l1.5-0.9l3.4,1.4l1.3,1.8
	l-0.4,5.5l-1,4.2l-14.7,79.9l-0.6,1.1l-2.8-3.9L521,516l-0.8-3.2l-2.8-2.9l-2-0.3l-1.8,1.4l-3.2-0.1l-5.7-2.5l20.6-32.2l-1.3-2.5
	l-1.4,1.1l-2.8-1.2l-1.8-2.7l-1.9,0.7v-2.2l-3,0.2l-3.6-2.7l-2.1,1.4l-1.7-3.8l-2.5-0.6l-2.6-2.4l-3.6-1l-0.8,1.8l-3.7,0.1l-2.3,2.4
	l-2.9-0.2l-3.2,1.2l-1.1-3.7l-1.3,1.8l-1.2-2.8l-4.2-1.6l-1.6,0.6l-0.2-1.6l-3.1,1.6l-3.8,4.2h-3.7l-2.1,2.3l-2.4-0.3l-1.3,1.1
	l-3.4,0.4l-1.3-1.3l-3.6-0.6l-2.4-1.5l-2.2,2.5l-2.6-1.2l-4.1,1.2l-0.8-1.9l-2.6-1.7l-0.8,1.4l-2.3-1.6l-1.2-2.4l2.6-4.3l-1.7-3.4
	l-0.5-4.8l-1.8-1.7l-2.8,1.6l-5.7-3.6l1.4-3l-0.4-2.9l-2.6-2.3l0.6-0.9l-2.2-3.5l-3.5-2.2l-1.4,1.2l-2.3-1l-1.2-2.3l-2.9-0.7
	l-1.4-2.7l-1.6,0.6l-3.6-1.1l-3.1-3.8l1.5-0.4l-0.2-1.9l-2.3-1.4l0.4-1.9l-1.5-3.4l0,0L411.2,406z" data-depto="Amazonas" data-depto-slug="amazonas" data-region="amazonia"/>
<path class="co-path" d="M360.4,89.3l-0.2-1.1l1.8-3.4l-3.4,2.6l-1.8,0.6l3.3-4l2.3-1.5l-0.2-2.2l-1.3-1l2-1.9l-0.2-3l3.2-2.9l4.3-0.9
	l0.8,2.5l-1.2,2.9l0.7,1.3l2.1,0.4l1.2,2.2l1.6-0.3l4.7,4.5l-0.8,3.9l2.5,1.2l1.5,2l-0.1,1.4l-1.9,1.5v2l1.9,3.1l-0.5,1.9l1.4,2.3
	l-0.5,5.5l2.4,0.6l6.1,5.7l2.4-0.8l0.5,1.2l3.3,0.7l3.2,3.4l3.1,1.9l1.4-0.8l1.8,2l3.3,0.5l0.1,2.5l1.9,2.2l-0.7,5.3l2,5.5l0.2,3.9
	l-1.2,3.4l0.3,1.7l-2.1,1.7l-0.5,3l1.7,6.9l-0.6,5.6l-2.2,2.5l0.2,3l-0.9,3.4l-9.6,9.2l-2.7-0.4l-1.6-4.8l-0.1-4.6l1.6-3.4l-0.5-1.7
	l-3.1,3.8l-2.8-1.9l-0.7-3l0.8-3.2l1.8-1.4l0.4-1.7l-1.3-2l-0.3-3l-1.7-2.9l-7-5.8l1-1.9l-0.1-0.9l3.7-0.9l3.2-2.7l0.7-1.9l-1.5-7.9
	l1.8-2.4l-3.5-4.8l-4.9-3.4l-2.2-3l-1.2-5.2l1.2-2.5l-1.3-1.2l-2.6-0.4l0.7-1.4l-1.8-0.2l-3.4-3.1l-3.4-1.1l-2.2,1.1l1.4-7.3
	l-4.5-1.1l0.1-3.7l-1.7,0.1l1.4-3.2L360.4,89.3z M370.9,69.1l-1.2,0.1l1.2-1.6l0.2,0.9L370.9,69.1z" data-depto="Bolívar" data-depto-slug="bolivar" data-region="caribe"/>
<path class="co-path" d="M354.4,271l-2.9,6.3l-3.1,4.7l-1.1,4.6l-1.6,3.5l0.1,3.8l-0.9,3.1l-5.4-2.1l-5.4-1.1l-0.9,4.2l-2.6,2l-4.1-0.2
	l-2.6-2l-1,1.8l-2.3,0.9l-3.8-2.2l-2.8-0.7l-4.6,2l-1.7-1.6l-1.3,0.4l-3-4.2l0.2-1.7l2.7-1.4l2.5-5.4l1.9-0.6l1.5-2.4l-0.7-2.4
	l1.5-0.1l0.3-2l3.1-2.9l-2.8-0.2l0.1,1.4l-3.9,1.4l-1.8-2.1l0.4-1.8l1.7-0.2l1.6-2.7l-2.2-1.2l-1,1.2l-1.4,4.2l-2.4-2.3l0.5-1.2
	l-0.8-3.2l2.6-1.3l2-0.4l0.6-0.6l0.3-0.4l1.2,2.3h2.7l1.8,1.9l3.3-0.5l1.9,2.4l4.9,1.4l1.9-1.8l2.1,0.2l4.7-4.5l-1.7-1.2v-2.5
	l-1.5-2.2l2.1-0.3l1-1.9l0.5-3.5l3.7-3.6l0.4-2.2l3.6-3.5l0.9-2.4l2-1.9l5,8.2l5.8,1.6l0.1,1.4l-3.5,0.1l-1.5,3.4l-0.4,3.9l2.4,0.8
	l0.6,3.3l-1.2,2.4v3L354.4,271z" data-depto="Sucre" data-depto-slug="sucre" data-region="caribe"/>
<path class="co-path" d="M356.9,109.7l2.3-1.1l1.3-5.1l-1.2-2l-2.6-0.4l1.6-1.7l1.8-6.3l0.2-3.8l2.8-1.5l-1.4,3.2l1.7-0.1l-0.1,3.7
	l4.5,1.1l-1.4,7.3l2.2-1.1l3.4,1.1l3.4,3.1l1.8,0.2l-0.7,1.4l2.6,0.4l1.3,1.2l-1.2,2.5l1.2,5.2l2.2,3l4.9,3.4l3.5,4.8l-1.8,2.4
	l1.5,7.9l-0.7,1.9l-3.2,2.7l-3.7,0.9l-0.1-2.1l-4-4.1l-4,1l-3.1,1.5l-3.3-2.4l-1.9-9.7l1.9-2.9l2.6-0.8l-0.1-3.5l-6.4-3.4l-1-2.5
	l-6.9-3.5L356.9,109.7z" data-depto="Atlántico" data-depto-slug="atlantico" data-region="caribe"/>
<path class="co-path" d="M370.1,70.7l1-0.7l-0.2-0.9l0.2-0.5l-0.2-0.9l5.7-3.2l0.4-1.7l5.2-3.4l2.4,2.7l1.2,2.9l-0.1,9.6l-2.3,2.2
	l-0.9,3.2l-2.4,4.2l-4.7-4.5l-1.6,0.3l-1.2-2.2l-2.1-0.4l-0.7-1.3l1.2-2.9L370.1,70.7z" data-depto="Magdalena" data-depto-slug="magdalena" data-region="caribe"/>
<path class="co-path" d="M413.5,147.7l-0.3-1.7l1.2-3.4l-0.2-3.9l-2-5.5l0.7-5.3l-1.9-2.2l2-5l-2.3-3.9l-2.2-0.3l-0.1-3l-1.3-3.2l-4-3
	l3.3-2.8l4.5,0.7l2.7-0.9l-1.7-4.3v-1.5l-4.9-5.1l-1.7-2.9l0.5-3.5l4.6-6.1l3.6-0.6l5.7-3.4l-1.1-4.5l1.5-2.4l-2.5-1.2l1.2-2.2
	l4.6-0.7l5.3,0.7l0.7,3.4l3.7,1.7l1.4,1.4l-3.1,5.3l1.5,1.7l3.5-0.1l2.8-0.8l-0.6,7.6l-1.5,5.3l0.3,4.9l-4.3,8.3l-1.6,1.2l-2.9,4.8
	l-1,2.6l-2,1.9l0.5,1.4l-1.6,0.5l-0.9,8.6l0.6,2.2l-3.8,4.8l-0.2,1.4l2.1,3.8l-1.1,2.1l2.1,2.1l1.5-1.6l-0.6-2.1l1.5-0.2l0.6,1.8
	l-1.6,5v3l1.3,3.3l2.2,0.9l-1.8,2.7l-0.2,2.6l-2.2,3l-1.9,0.9l-3.9-1.7l-3.7-0.2l0.1-2.5l2-2.1v-1.6l-1.6-1.2L413.5,147.7z" data-depto="Cesar" data-depto-slug="cesar" data-region="caribe"/>
<path class="co-path" d="M419.4,56.2l0.5-2.5h4.8l3.3-0.6l7-6.1l3.5-1.9l5.1-4.3l9-2.9l5.5-2.9l3.6-6.6l-1-3.9l5.9-0.7l-1.3,1.9
	l1.4,1.2l2.9-1.7l-0.7-2l-2-0.2l2.7-2.5l1.9,1.2l3.2-3.2l-0.1-1.1l4.9,0.4l8.5,3.5l3.8,7.1l-0.7,2.4l-4.7,2.9l-0.8,2.2l-3.6,1.7
	l-15.3,4.2l-1.1,1.1l-7.2,13.9l-7.1,1.4l-2.2,5l-3.8,4.4l-1.4,4.1l-2.6,3.5l-2.1,4l-2.8,0.8l-3.5,0.1l-1.5-1.7l3.1-5.3l-1.4-1.4
	l-3.7-1.7l-0.7-3.4l-5.3-0.7l-4.6,0.7l-1.3-4.4l0.4-4.5L419.4,56.2z" data-depto="La Guajira" data-depto-slug="la-guajira" data-region="caribe"/>
<path class="co-path" d="M418.7,66.7l-1.2,2.2l2.5,1.2l-1.5,2.4l1.1,4.5l-5.7,3.4l-3.6,0.6l-4.6,6.1l-0.5,3.5l1.7,2.9l4.9,5.1v1.5
	l1.7,4.3l-2.7,0.9l-4.5-0.7l-3.3,2.8l4,3l1.3,3.2l0.1,3l2.2,0.3l2.3,3.9l-2,5l-0.1-2.5l-3.3-0.5l-1.8-2l-1.4,0.8l-3.1-1.9l-3.2-3.4
	l-3.3-0.7l-0.5-1.2l-2.4,0.8l-6.1-5.7l-2.4-0.6l0.5-5.5l-1.4-2.3l0.5-1.9l-1.9-3.1v-2l1.9-1.5l0.1-1.4l-1.5-2L379,88l0.8-3.9
	l2.4-4.2l0.9-3.2l2.3-2.2l0.1-9.6l-1.2-2.9l-2.4-2.7l0.1-0.7l9.4,3.4l4.7,0.8l-4.1-0.1l-0.5,1.5l1.1,2.2l-3.2-1.1l-0.5,2.9l3.4-1.6
	l1,2.8l2.7-0.8l2.4-6.5l1.9-2.7L400,56l1.6-3.5l5.4-1.2l5.3,2.4h7.6l-0.5,2.5l-1.6,1.6l-0.4,4.5L418.7,66.7z" data-depto="Norte de Santander" data-depto-slug="norte-de-santander" data-region="andina"/>
<path class="co-path" d="M467.8,182.5l3.9,0.6l1.7-1.2l4.6-0.8l10.1,1l0.2,1.1l2.7,0.6l6.7-1.5l1.7-1.6l6-1.2l3.7,0.4l1.7,2.1l1.8,0.2
	l4.3,2l4.8-1.2l1.8,1l19.7,24.7h0.4l-4.2,2.1l-6.4-0.2l-2.1,1.1l-3.1-3l-2-0.7l-2.8-3l-2.1-0.6l-5.5-0.1l-3.9,1.6l-6.7,0.4l-4.1-0.1
	l-10.2-1.7l-7.6,2.3l-4.4-0.3l-3.4,0.3l-4,1.4l-2.7,0.1l-6.2,2.4l-3.1-1.9l-2.6-3.8l0.7-2.7l1.7-2.6l3.2-1.1l0.9-1.9l0.7-5.8
	l1.4-1.6L467.8,182.5z" data-depto="Arauca" data-depto-slug="arauca" data-region="orinoquia"/>
<path class="co-path" d="M418.2,160.6l3.9,1.7l1.9-0.9l2.2-3l0.2-2.6l1.8-2.7l-2.2-0.9l-1.3-3.3v-3l1.6-5l-0.6-1.8l-1.5,0.2l0.6,2.1
	l-1.5,1.6l-2.1-2.1l1.1-2.1l-2.1-3.8l0.2-1.4l3.8-4.8l-0.6-2.2l0.9-8.6l1.6-0.5l4.5-0.2l6-3.7l0.9,4.4l1.3,1.6l3.3-1.3l1.3,2.5
	l3.2,12.3l0.6,1l8,8.4l-0.3,2.5l1.8,4.6l-0.4,1.9h-1.7l-2.4,2.9l1.1,3.5l-0.9,5.5l0.6,2.4l-0.6,1.9l0.9,2l3.9,1.6l3.4,0.2l1.3,1.6
	l0.3,4.1l2.2,3.8l2.6,1.6l-5.6-0.8l-2.1,1.9l-1.1-0.9l-2.8,3.8l-3.6-1.1l-1.3,0.9l-0.9-3.6l-5,0.5l-4.2-2.5l1.6-2.7l-1.5-2.8
	l1.2-3.1l-1.8-3.5l-2.1-1.7l-0.5-2.4l-6.7-0.5l-1.3,2.6l-3.3-0.2l-4-1.6L418.2,160.6z" data-depto="Casanare" data-depto-slug="casanare" data-region="orinoquia"/>
<path class="co-path" d="M457.2,202.3l-0.7,2.7l2.6,3.8l3.1,1.9l6.2-2.4l2.7-0.1l4-1.4l3.4-0.3l4.4,0.3l7.6-2.3l10.2,1.7l4.1,0.1
	l6.7-0.4l3.9-1.6l5.5,0.1l2.1,0.6l2.8,3l2,0.7l3.1,3l-1.3,1.7l-2.1,5l-2.9,4.2l-3.5,2.5l-4.7,0.6l-3.2,1.1l-6.8,4.3l-0.3,2l-6,5.2
	l-2.1,1.1l-3,6.1l-4.6,3.1l-1.8,0.2l-8.7,3.8l-3.6,2.2l-4,1.2l-2.3,2.5l-3.4,2.6l-1.7,0.1l-2.4-1.7l-5.2,1.3l-1.3,1.9l-2-0.3
	l-2.1,1.1l-1.6-1.1l-0.8,1.4l-4.8-0.1l-0.1-1.1l-5.2-5.3l-3.8-6.3l-0.5-2.3l1.1-5.3l1.7,0.2l2-3.2l-1.4-1.9l0.5-2.9l3.9-4.3l3,3.1
	l3.5-2.2l5.1-6.1l3,1.6l1.4-4.3l1-1.1l-3.4-3.5l-2.9-1.6l1.6-1.4l1.5-5.4l-2.2-3.8l1.8-4L457.2,202.3z" data-depto="Boyacá" data-depto-slug="boyaca" data-region="andina"/>
<path class="co-path" d="M466.1,374.1l-2.1-1.4l-4-0.8l-2.2-2.3v-2.1l-2.7-2l-0.5-2.4l-1.7-1.7l-2.1-0.6l-3.8-2.6l-2-0.2l-0.7,1.4
	l-1.7-1.4l-1.6,1.2l-0.7,3.4l-3.5,2.9l-2.1,0.7l-2.8-1.3l-7.5-7.3l-0.6-2.9l-3.6-4l-3.4-5.7l0.4-0.5l0.2-19.7l1.7-2.8l5.2,1.7
	l5.5-0.6l0.8-1.1l1.9,0.8l4-1.6l2.8-2l0.7-2.1l3.4-1.6l1.6,1.2l1-1.4l2.1,1.2l0.7-1.6l5.6-2.2l1.6-1.3l3.4,1.2l0.1-1.7l1.6-0.6
	l-0.1-1.9l2.3-1l3.9,2l4.7-1l1.3-0.9l1,1.3l0.7-1.9l3.4,2l1.9-1.2l5.4,0.3l2.4-1.8l2.3,1.5l1.7-0.9l3.1,0.4l3.1,0.1l4.2,2l6.8-1.4
	l2.8,1.7l-11.9,5l-0.1,0.9l4.6,1.9l2.1,2.8l1.6,3.3l3.6,1.6l6,1.6l8.1-1.6l1.1,2.4l-3.2,2.9l-2.9,2.2l-7.3,1.3l-1.6,1.1l-6.1,1.6
	l-1.3-0.5l-5,0.1l-1.7,1.9l-5.8,2.9l-3.1,2.5l-3.8-1.8l-0.4,4.1l-0.8,1l-3.3,8.6v3.7l-2,3.5l-1.9,1.9l-2.5,0.3l-0.9,1.7L466.1,374.1
	z" data-depto="Guaviare" data-depto-slug="guaviare" data-region="amazonia"/>
<path class="co-path" d="M495.1,307.4L492,307l-1.7,0.9l-2.3-1.5l-2.4,1.8l-5.4-0.3l-1.9,1.2l-3.4-2l-0.7,1.9l-1-1.3l-1.3,0.9l-4.7,1
	l-3.9-2l-2.3,1l0.1,1.9l-1.6,0.6l-0.1,1.7l-3.4-1.2l-1.6,1.3l-5.6,2.2l-0.7,1.6l-2.1-1.2l-1,1.4l-1.6-1.2l-3.4,1.6l-0.7,2.1l-2.8,2
	l-4,1.6l-1.9-0.8l-0.8,1.1l-5.5,0.6l-5.2-1.7l-1.7,2.8l-0.2,19.7l-0.4,0.5l-7.3-0.2l-17.8-6.3l-2.9-3.6l-0.3-2.4l2.1-4.2l-3-4.1
	l-0.2-4.4l1.7-7.8l-4-5.6l-5-1.3l2.2-4.7l4.3-3.1l0.9-1.5l1.1-6.8l2.2-3l1.4-3.6l2,0.7l2.7-4l0.8-2.3l3-4l1.6,0.4l0.9,0.1l3.5-2.9
	l5.7-3h1.9l-1.1-2.7l-0.2-4.5l2.9-2.4l2.2,1.2l2.5,5.3l1.5,0.6l3.6-1.1l3.7,0.9l3.3,1.6l2.1-14.4l0.3-0.6l3.8,6.3l5.2,5.3l0.1,1.1
	l4.8,0.1l0.8-1.4l1.6,1.1l2.1-1.1l2,0.3l1.3-1.9l5.2-1.3l2.4,1.7l1.7-0.1l3.4-2.6l2.3-2.5l4-1.2l3.6-2.2l8.7-3.8l1.8-0.2l4.6-3.1
	l0.1,47v14.4H495.1z" data-depto="Vichada" data-depto-slug="vichada" data-region="orinoquia"/>
<path class="co-path" d="M487.5,390.1l-3-1.8l-3.5,0.4l-4.5-2.4l-2.9-3.5l-2,0.1l0.3-1.4l-2.8-2.1l0.3-1.6l-2-1.1l-1.2-2.6l7.4-7.6
	l0.9-1.7l2.5-0.3l1.9-1.9l2-3.5v-3.7l3.3-8.6l0.8-1l0.4-4.1l3.8,1.8l3.1-2.5l5.8-2.9l1.7-1.9l5-0.1l1.3,0.5l6.1-1.6l1.6-1.1l7.3-1.3
	l2.9-2.2l-1.5,7.1l3.2,2.6l6.3,2.2l-0.2,1.2v18.4l2.7-0.9l1.4,0.9l2.9-0.4l4.2,0.4l1.8,0.9l1.4-1l2.5,0.7l4.1,5.2l-1.1,4.7l1.5,1.9
	l-2.7,1.1l-4.1-0.8l-2.3-2.3l-2-0.4l-3.4,2.4l-2.3-0.5l-3.4,1.8l-7.4,0.6l-0.6,21.6l0.2,1.1l3.7,4.4l2.6,1.1l3.4,3.4l3.4,1.6
	l1.4,4.2l-1.3,2.7l1.7,2.4l1,3.2l2.7,2.3v2.9l1.4,2.7l-0.7,1.7l-1.3-1.8l-3.4-1.4l-1.5,0.9l-0.9-3.8l-2.1-1.4l-1.9,1.6l-4.6-0.4
	l1.5-3.2l-6.8,1.6l1.6,2.1l-2,0.8l-1.5-1.1V423l-1.1,0.9l-1.7-1.6l2-2.4l-1.8-3l1.2-1l-0.2-4.2l-1.9-0.7l2.7-4l-1.9-0.6l-2.2,2.2
	l-2.8-0.3l-1.6-3.2l-7.8-2.4l-1.3,1.3l-1.5-0.4l-2.6-5.1l-0.1-2.7l-1.6-2l-1.3,0.4L493,393l-1-2.4l-2.8,0.5L487.5,390.1z" data-depto="Vaupés" data-depto-slug="vaupes" data-region="amazonia"/>
<path class="co-path" d="M512.1,309.9l-2.8-1.7l-6.8,1.4l-4.2-2l-3.1-0.1v-14.9l-0.1-47l3-6.1l2.1-1.1l6-5.2l0.3-2l6.8-4.3l3.2-1.1
	l4.7-0.6l3.5-2.5l2.9-4.2l2.1-5l1.3-1.7l2.1-1.1l6.4,0.2l4.2-2.1l3.6-0.7l2,2l5.5-4.2l6.9,0.9l5.8,1.5l1.5-1.1l4.1-0.8l4.3,0.6
	l4.7-1.6l3.8,0.4l2.8-0.7l2.6-2.2l3.2,0.1l4.7,1.1l2.5,1.9v2.6l1.9,2.3l-0.1,2.2l-1.5,0.7l-3.4,3.8l-1.2,2.3l-0.2,2.7l1.1,3.2
	l-0.9,2.1l-4.9,3.2l-1,2.5l0.9,3.4l-0.3,2.4l1,1.4l-1,5.9l0.4,0.9l-1.4,10l1.1,0.6l1.4,4.6l-0.7,2.2l0.6,2.9l2.1,4l-2.4,2.7
	l-2.4,0.9l-2.2-1.1l-1.1,0.7l-3.2-2.1l-2.3,2.5l-0.6-1.6l-2,1l-0.5-1.9l-2.7-0.5l-0.7,3.2l-4.9,3.7l-4.3-0.1l-3.4,3.3l-4.2-0.4
	l-0.5,1.9l-2.4-0.4l-1,1.2l-2-1.9l-1.1,0.7l-3.5-2.2l-4.2,1.3l-1.3-0.9l-3.9,0.7l-1.4,4.6l-1.6-0.8l-5.6,0.1l-2,1.9l-3.6-0.6l0.5,3
	l-1.5,0.3l-0.9,2l0.7,4.3l-2.1,0.2l-3.3,3.5l1,3.7l-3.3,3.4L512.1,309.9z" data-depto="Guainía" data-depto-slug="guainia" data-region="amazonia"/>
<path class="co-path" d="M382.4,146.9l7,5.8l1.7,2.9l0.3,3l1.3,2l-0.4,1.7l-1.8,1.4l-0.8,3.2l0.7,3l2.8,1.9l3.1-3.8l0.5,1.7l-1.6,3.4
	l0.1,4.6l1.6,4.8l2.7,0.4l9.6-9.2l0.2,5.9l1,2.5l-3.5,2.6l-3,4.3l-5.5,4.1l-2.8,0.9l-0.6,4.6l0.8,1.6l-4.2,4.2l-1.8,2l-0.7,2.8
	l0.8,1.7l-0.4,4.4L388,217l-0.7,2.7l-1.5-0.1l-2,2.6l-2.7-1.7l-3.7,0.9l-3,1.6v1.9l-1.5,2l-1.5,0.4l-2.4,2.5l-1.3-0.9l-0.7-3.7
	l-1.3-2.6l-2.6,0.1l-4.2-2l0.6,1.6l0.2,5l-4.6-1.2l-3.6,2l-3-0.6l-2.5-2.1l-1.6-2l0.3-2.5l-1.3-4l0.7-3.4l-3.2-1.8l-1.8-4.7
	l-3.3-0.1l-5.4,0.8l-3.9-0.2l-3-4.5l0.4-5l-3.1-3l-0.3-3.4l-1,0.6l-1-4.1l4.1-0.9l1.2-1.5l-1-3.4l4.4-0.7l4.1,1.1l1.3-2.5l-0.7-5.3
	l-1.7-1.7l-3.1-1.6l-5.4-6.4l-6.9-5.8l-0.3-2.7l2.9-1.7l0.6-3l1.5-2.6l-0.9-5.2l1.5,2.2l-0.2,1.7l3.3-0.2v3.4l-2.2-0.6l-0.8,2.4
	l2.4,1.6l2.9-0.3l0.7-4.7l-1.1-5.5V140l-2-3.1l-3.2-1.4l1.6-2.2l6.5-1.8l0.8-2l2.6-0.9l3.4-2.8l1.6,4l1.7,2.4l3,2.5l0.3,5l-3,3.9
	l-3.1,5.5l-0.4,5l-2.2,5.8l0.2,4.3l2.7,6.7l16.1,0.6l3-4.1l5.3-2.1l1.3-3.6l2.7-3.6l2.9-2.3l4-4.9l3.4-0.6l5.1-0.1L382.4,146.9z" data-depto="Córdoba" data-depto-slug="cordoba" data-region="caribe"/>
<path class="co-path" d="M382.4,146.9l-3.2,3.5l-5.1,0.1l-3.4,0.6l-4,4.9l-2.9,2.3l-2.7,3.6l-1.3,3.6l-5.3,2.1l-3,4.1l-16.1-0.6
	l-2.7-6.7l-0.2-4.3l2.2-5.8l0.4-5l3.1-5.5l3-3.9l-0.3-5l-3-2.5l-1.7-2.4l-1.6-4l0.5-1.2l3.1-0.9l2-2v-2l2-2.4l0.6-2.9l1.5-0.6
	l1.2-2.4l5-2.5l2.7-0.5l0.2,1.6l3.4-0.7v1.9l6.9,3.5l1,2.5l6.4,3.4l0.1,3.5l-2.6,0.8l-1.9,2.9l1.9,9.7l3.3,2.4l3.1-1.5l4-1l4,4.1
	l0.1,2.1l0.1,0.9L382.4,146.9z" data-depto="Antioquia" data-depto-slug="antioquia" data-region="andina"/>
<path class="co-path" d="M451.7,185.3l3.6,1.1l2.8-3.8l1.1,0.9l2.1-1.9l5.6,0.8l0.9,0.2l-2.6,6.8l-1.4,1.6l-0.7,5.8l-0.9,1.9l-3.2,1.1
	l-1.7,2.6l-1,0.5l-1.8,4l2.2,3.8l-1.5,5.4l-1.6,1.4l2.9,1.6l3.4,3.5l-1,1.1l-1.4,4.3l-3-1.6l-5.1,6.1l-3.5,2.2l-3-3.1l-3.9,4.3
	l-0.5,2.9l1.4,1.9l-2,3.2l-1.7-0.2l-1.1,5.3l0.5,2.3l-1.2,1.7h-3.7l-0.3-1.4l-2.3-0.4L425,247l-3.6-0.4l-0.7-1.4l0.8-2.7l1.2-0.9
	l-1.3-5.6l-1.9-2l-0.2-2.5l-1.9-2.2l-4.1-1.4l-0.9-1.5l-5.4,5.5l-2.6-1.4l-0.3-1.1l-4.4-0.9l-1.7-3.1l0.3-2.5l-0.7-3.7l-1-1.1
	L394,220l-2.8-0.7l-3.4,1.2l-0.4-0.4l-0.1-0.2l0.7-2.7l1.5-1.7l0.4-4.4l-0.8-1.7l0.7-2.8l1.8-2l2.3,5.6l2.5,1.7l2-1l1.5,2.7l-0.9,3
	l1.1,1.1l1.8-1.7l1.9,0.9l4.1,4.2l7-0.9l2.9,1.2l0.7-6l1.1-2.6l2.3-3l3.1,2.3l-0.1,3.4l-2.1,2.2l2,2.8l1.4-3l2,0.1l2-3.8l5.5,1.2
	l4.2-5.5l2.3-0.9l1.9-2.3l0.7-6.8l-1.9-2.3l1-1.2l1.6,1.3l1.4,2.9l1.3-0.2l2.2-1.9l1.3-4.3l0.6-6L451.7,185.3z" data-depto="Meta" data-depto-slug="meta" data-region="orinoquia"/>
<path class="co-path" d="M451.7,185.3l0.8,2.1l-0.6,6l-1.3,4.3l-2.2,1.9l-1.3,0.2l-1.4-2.9l-1.6-1.3l-1,1.2l1.9,2.3l-0.7,6.8l-1.9,2.3
	l-2.3,0.9l-4.2,5.5l-5.5-1.2l-2,3.8l-2-0.1l-1.4,3l-2-2.8l2.1-2.2l0.1-3.4l-3.1-2.3l-2.3,3l-1.1,2.6l-0.7,6l-2.9-1.2l-7,0.9
	l-4.1-4.2l-2-0.5l-1.8,1.7l-1.1-1.1l0.9-3l-1.5-2.7l-2,1l-2.5-1.7l-2.3-5.6l4.2-4.2l-0.8-1.6l0.6-4.6l2.8-0.9l5.5-4.1l3-4.3l3.5-2.6
	l-1-2.5l-0.2-5.9l0.9-3.4l-0.2-3l2.2-2.5l0.6-5.6l-1.7-6.9l0.5-3l2.1-1.7l1.7,5.3l1.6,1.2v1.6l-2,2.1l-0.1,2.5l3.7,0.2l3.6,3.8
	l4,1.6l3.3,0.2l1.3-2.6l6.7,0.5l0.5,2.4l2.1,1.7l1.8,3.5l-1.2,3.1l1.5,2.8l-1.6,2.7l4.2,2.5l5-0.5l0.9,3.6L451.7,185.3z" data-depto="Santander" data-depto-slug="santander" data-region="andina"/>
<path class="co-path" d="M387.4,219.9l0.1,0.2l0.4,0.4l0.3,3.3l-1.2,2.9l0.5,2.7l-2.7,5.1l-2.5-0.7l-3.2,0.2l-3.7,1.2l-2.1,3.3
	l-1.1-0.4l-3.7,1.2l-1.6,2.2l0.9,1l-1.1,2.7l0.7,1.3l-1.5,2.9l-3.4-3.6l-3.5-0.4l-0.8-1.2l-2.1,0.6l-1.2-2.8l-1.4,3.2l-1.9,0.2
	l-2-3.4l1.1-2.4l1.6,0.3l0.9-2.4l-0.3-2.5l3.7,0.5l1.5-1.4l-2.2-2.8l-4.1,0.7v-3.5l3.6-2l4.6,1.2l-0.2-5l-0.6-1.6l4.2,2l2.6-0.1
	l1.3,2.6l0.7,3.7l1.3,0.9l2.4-2.5l1.5-0.4l1.5-2v-1.9l3-1.6l3.7-0.9l2.7,1.7l2-2.6L387.4,219.9z" data-depto="Cundinamarca" data-depto-slug="cundinamarca" data-region="andina"/>
<path class="co-path" d="M384.8,234.4l2.7-5.1l-0.5-2.7l1.2-2.9l-0.3-3.3l3.4-1.2l2.8,0.7l2.8-1.8l1,1.1l0.7,3.7l-0.3,2.5l1.7,3.1
	l4.4,0.9l0.3,1.1l2.6,1.4l5.4-5.5l0.9,1.5l4.1,1.4l1.9,2.2l0.2,2.5l1.9,2l1.3,5.6l-1.2,0.9l-0.8,2.7l0.7,1.4l3.6,0.4l2.9,4.1
	l2.3,0.4l0.3,1.4h3.7l1.2-1.7l-0.3,0.6l-2.1,14.4l-3.3-1.6l-3.7-0.9l-3.6,1.1l-1.5-0.6l-2.5-5.3l-2.2-1.2l-2.9,2.4l0.2,4.5l1.1,2.7
	H413l-5.7,3l-3.5,2.9l-0.9-0.1l1.8-4l-1.6-4.1l1.2-2l-0.2-1.9l3.6-6.9L407,253l0.2-4.3l-2.1-0.6l-2.4,4.8l-1.9,1.4l1.3,3.8l-1,7.4
	l-1.8,4.7l-1.6-0.8l-1.3,2.7l0.3,2.7l-1.8,4.2l-2.2,3.1l-1.1-0.8l-1-1.3l1.5-5.3l-0.6-1.1l1.3-5.6l-2-3l-3,1.8l-3.9-2.2L381,265
	l-0.2-1.2l2.1-4.7v-4.3l0.7-1l-1-2.5l2-2.4V244l0.8-4.3L384.8,234.4L384.8,234.4z" data-depto="Caldas" data-depto-slug="caldas" data-region="andina"/>
<path class="co-path" d="M392.4,282.3l2.2-3.1l1.8-4.2l-0.3-2.7l1.3-2.7l1.6,0.8l1.8-4.7l1-7.4l-1.3-3.8l1.9-1.4l2.4-4.8l2.1,0.6
	l-0.2,4.3l0.7,1.2l-3.6,6.9l0.2,1.9l-1.2,2l1.6,4.1l-1.8,4l-1.6-0.4l-3,4l-0.8,2.3l-2.7,4L392.4,282.3z" data-depto="Bogotá" data-depto-slug="bogota" data-region="andina"/>
<path class="co-path" d="M351.6,228.3v3.5l4.1-0.7l2.2,2.8l-1.5,1.4l-3.7-0.5l0.3,2.5l-0.9,2.4l-1.6-0.3l-1.1,2.4l2,3.4l1.9-0.2
	l1.4-3.2l1.2,2.8l2.1-0.6l0.8,1.2l3.5,0.4l3.4,3.6l-0.4,2.5l-3.2,1.3l-1.1-0.8l-5.4-0.4l-5.8-1.6l-5-8.2l-0.7-4.3l-2.5-4l0.5-3
	l2.1-1.4l1.5-3.7l2.5,2.1L351.6,228.3z" data-depto="Risaralda" data-depto-slug="risaralda" data-region="andina"/>
<path class="co-path" d="M355.9,251.8l5.4,0.4l1.1,0.8l3.2-1.3l-1.3,2.9l-1.4,0.7l-3,5l-0.6,4l-4.8,6.6l-2-1v-3l1.2-2.4l-0.6-3.3
	l-2.4-0.8l0.4-3.9l1.5-3.4l3.5-0.1L355.9,251.8z" data-depto="Quindío" data-depto-slug="quindio" data-region="andina"/>
<path class="co-path" d="M531.9,342.5l-6.3-2.2l-3.2-2.6l1.5-7.1l3.2-2.9l-1.1-2.4l-8.1,1.6l-6-1.6l-3.6-1.6l-1.6-3.3l-2.1-2.8
	l-4.6-1.9l0.1-0.9l11.9-5l3.5-1.9l3.3-3.4l-1-3.7l3.3-3.5l2.1-0.2l-0.7-4.3l0.9-2l1.5-0.3l-0.5-3l3.6,0.6l2-1.9l5.6-0.1l1.6,0.8
	l1.4-4.6l3.9-0.7l1.3,0.9l4.2-1.3l3.5,2.2l1.1-0.7l2,1.9l1-1.2l2.4,0.4l0.5-1.9l4.2,0.4l3.4-3.3l4.3,0.1l4.9-3.7l0.7-3.2l2.7,0.5
	l0.5,1.9l2-1l0.6,1.6l2.3-2.5l3.2,2.1l1.1-0.7l2.2,1.1l2.4-0.9l2.4-2.7l0.7,3.4l1.9,5.1l2.9,0.7l2,1.7l2,5.3l3,2.4l-0.1,1.2
	l-2.6,3.6l-1.7,0.7l-11.6,10.9l-0.5,3l3.2-1.7l3.8,0.9l1.5,3.7l2.7,0.9l4.8,5.7l3.9,2.2l0.7,1.9l-1.3,1.6l1.4,4.3l1.5,0.7l-0.4,3.5
	l2.1,3.3l2.6,6.9l1.4,5v2.4l1.5,3l0.2,3.2l-5.8,1.6l-1-2.4l0.7-8.8l-1.3-5.1l-1.2-2.4l-3.3-4.4l-2.3-4.8l-3-1.5l-4.6,2.6l-5.9,7.4
	l-2.1,1.6l-4.1,0.3l-1.8-2L584,336l-3-2.5l-2.4,5.4l3.5,3.3l-35.8,0.1l-6.8-1.5l-2.1,1L531.9,342.5z" data-depto="Putumayo" data-depto-slug="putumayo" data-region="amazonia"/>
<text transform="matrix(1 0 0 1 181.0112 26.4584)" class="co-label">San Andrés y</text>
<text transform="matrix(1 0 0 1 181.0112 33.6584)" class="co-label">Providencia</text>
<text transform="matrix(1 0 0 1 302.043 318.1268)" class="co-label">Cauca</text>
<text transform="matrix(1 0 0 1 277.4605 350.7668)" class="co-label">Nariño</text>
<text transform="matrix(1 0 0 1 309.9936 219.7747)" class="co-label">Chocó</text>
<text transform="matrix(1 0 0 1 356.0671 283.0681)" class="co-label">Tolima</text>
<text transform="matrix(1 0 0 1 392.8349 377.7407)" class="co-label">Caquetá</text>
<text transform="matrix(1 0 0 1 336.151 334.9458)" class="co-label">Huila</text>
<text transform="matrix(1 0 0 1 319.3947 377.7405)" class="co-label">Putumayo</text>
<text transform="matrix(1 0 0 1 456.4517 442.0809)" class="co-label">Amazonas</text>
<text transform="matrix(0.2425 0.9702 -0.9702 0.2425 392.3666 136.3354)" class="co-label">Bolívar</text>
<text transform="matrix(1 0 0 1 316.0827 282.3228)" class="co-label">Valle del</text>
<text transform="matrix(1 0 0 1 316.0827 291.9228)" class="co-label">Cauca</text>
<text transform="matrix(0.8605 0.5095 -0.5095 0.8605 332.658 90.8908)" class="co-label">Sucre</text>
<text transform="matrix(0.8642 0.5032 -0.5032 0.8642 342.0124 47.8061)" class="co-label">Atlántico</text>
<text transform="matrix(1 0 0 1 412.8684 96.8055)" class="co-label">Cesar</text>
<text transform="matrix(0.8043 -0.5942 0.5942 0.8043 432.5605 63.6927)" class="co-label">La Guajira</text>
<text transform="matrix(0.566 -0.8244 0.8244 0.566 388.132 102.7652)" class="co-label">Magdalena</text>
<text transform="matrix(1 0 0 1 480.3016 195.5747)" class="co-label">Arauca</text>
<text transform="matrix(1 0 0 1 458.8365 144.1337)" class="co-label">Norte de</text>
<text transform="matrix(1 0 0 1 458.8365 154.1337)" class="co-label">Santander</text>
<text transform="matrix(1 0 0 1 472.0187 221.3882)" class="co-label">Casanare</text>
<text transform="matrix(1 0 0 1 437.6962 340.2176)" class="co-label">Guaviare</text>
<text transform="matrix(1 0 0 1 435.4629 295.2614)" class="co-label">Meta</text>
<text transform="matrix(1 0 0 1 488.7922 374.0976)" class="co-label">Vaupés</text>
<text transform="matrix(1 0 0 1 526.8928 256.2304)" class="co-label">Vichada</text>
<text transform="matrix(1 0 0 1 338.2428 189.7891)" class="co-label">Antioquia</text>
<text transform="matrix(1 0 0 1 343.8738 147.7325)" class="co-label">Córdoba</text>
<text transform="matrix(1 0 0 1 421.0817 230.0755)" class="co-label">Boyacá</text>
<text transform="matrix(1 0 0 1 399.9999 199.3461)" class="co-label">Santander</text>
<text transform="matrix(0.9606 -0.278 0.278 0.9606 357.76 239.7537)" class="co-label">Caldas</text>
<text transform="matrix(0.7909 0.612 -0.612 0.7909 391.0645 230.075)" class="co-label">Cundinamarca</text>
<text transform="matrix(0.116 -0.9932 0.9932 0.116 396.8366 263.5216)" class="co-label">Bogota</text>
<text transform="matrix(1 -7.299745e-03 7.299745e-03 1 346.1538 250.2735)" class="co-label">Risaralda</text>
<text transform="matrix(1 0 0 1 343.9607 258.4127)" class="co-label">Quindío</text>
<text transform="matrix(1 0 0 1 539.3633 314.9315)" class="co-label">Guainía</text>
<path class="co-path co-path--empty" d="M790,261.5h10v10h-10V261.5z"/>
<path class="co-path co-path--empty" d="M5,5"/>
<path class="co-path co-path--empty" d="M0,0"/>
<rect x="187.1" y="36.8" class="co-label" width="21.2" height="26.4"/>
</svg>