<svg width="152" height="132" viewBox="0 0 152 132" fill="none" xmlns="http://www.w3.org/2000/svg">
<path d="M117.949 131.553L118.518 114.762L105.93 112.856L105.163 131.741" fill="white"/>
<path d="M105.162 132C105.096 131.997 105.033 131.969 104.988 131.92C104.942 131.872 104.917 131.807 104.919 131.741L105.686 112.851C105.687 112.815 105.695 112.779 105.711 112.747C105.727 112.715 105.749 112.686 105.777 112.663C105.804 112.64 105.836 112.624 105.871 112.615C105.905 112.606 105.941 112.605 105.976 112.612L118.569 114.518C118.63 114.528 118.685 114.56 118.724 114.607C118.764 114.655 118.784 114.715 118.782 114.777L118.213 131.548C118.212 131.581 118.204 131.614 118.19 131.644C118.176 131.675 118.156 131.702 118.132 131.725C118.107 131.747 118.078 131.765 118.047 131.776C118.016 131.788 117.982 131.793 117.949 131.792C117.915 131.79 117.883 131.783 117.852 131.769C117.822 131.755 117.795 131.735 117.772 131.71C117.749 131.686 117.732 131.657 117.72 131.626C117.709 131.594 117.704 131.561 117.705 131.528L118.259 114.991L106.169 113.161L105.417 131.761C105.413 131.826 105.384 131.887 105.337 131.931C105.29 131.976 105.227 132 105.162 132Z" fill="#282834"/>
<path d="M56.5171 124.301L70.9195 107.225L83.7974 110.376L67.3875 127.162" fill="white"/>
<path d="M67.3876 127.421C67.3205 127.42 67.2566 127.393 67.2097 127.345C67.186 127.322 67.1672 127.294 67.1544 127.264C67.1416 127.233 67.1349 127.2 67.1349 127.167C67.1349 127.134 67.1416 127.101 67.1544 127.071C67.1672 127.04 67.186 127.012 67.2097 126.989L83.3045 110.518L71.011 107.51L56.7102 124.468C56.6653 124.519 56.6029 124.55 56.5358 124.555C56.4688 124.561 56.4021 124.541 56.3494 124.499C56.2982 124.455 56.2664 124.392 56.2607 124.325C56.255 124.257 56.2759 124.19 56.3189 124.138L70.7519 107.063C70.7821 107.026 70.8221 106.999 70.8671 106.985C70.9121 106.971 70.9603 106.969 71.006 106.981L83.8838 110.127C83.9266 110.139 83.9658 110.162 83.9977 110.193C84.0296 110.224 84.0533 110.262 84.0668 110.305C84.0786 110.348 84.0792 110.394 84.0685 110.437C84.0578 110.481 84.0362 110.521 84.0058 110.554L67.5959 127.325C67.5707 127.355 67.5389 127.38 67.5028 127.397C67.4667 127.413 67.4273 127.422 67.3876 127.421Z" fill="#282834"/>
<path d="M112.333 38.3383C112.333 38.3383 92.7572 43.7049 92.9452 44.4672C93.1332 45.2295 96.9549 59.3474 96.9549 59.3474L109.152 56.2982L112.333 38.3383Z" fill="#FF7500"/>
<path d="M112.73 38.2213C112.73 38.2213 106.514 39.8882 102.703 42.0837C98.8914 44.2791 99.9382 67.6767 99.9382 67.6767L128.179 73.3686C128.179 73.3686 133.556 58.1733 133.19 51.2364C132.824 44.2994 128.535 34.4606 112.73 38.2213Z" fill="#FFC74F"/>
<path d="M98.6676 56.2729C98.6358 56.2801 98.6028 56.2801 98.571 56.2729C98.5076 56.2459 98.4572 56.1952 98.4306 56.1316C98.404 56.068 98.4033 55.9965 98.4287 55.9324C100.273 51.3941 103.053 44.4724 103.13 43.9896C103.13 43.9558 103.138 43.9224 103.151 43.8915C103.165 43.8606 103.185 43.8327 103.209 43.8095C103.234 43.7864 103.263 43.7683 103.295 43.7565C103.326 43.7446 103.36 43.7392 103.394 43.7406C103.464 43.7432 103.529 43.7727 103.578 43.823C103.626 43.8732 103.653 43.9402 103.653 44.0099C103.653 44.447 100.34 52.6494 98.9115 56.1306C98.889 56.1753 98.8539 56.2126 98.8106 56.2379C98.7673 56.2631 98.7176 56.2753 98.6676 56.2729Z" fill="#282834"/>
<path d="M114.457 35.3702L112.465 41.3569C112.465 41.3569 112.414 44.9143 116.363 44.6043C117.529 44.5 118.658 44.1376 119.667 43.5435C120.676 42.9493 121.54 42.1382 122.197 41.1688L123.864 30.4356C123.26 29.9086 122.875 29.1741 122.787 28.3774C122.699 27.781 122.716 27.1739 122.837 26.5834C123.023 25.7905 123.319 25.0276 123.717 24.3168C121.839 24.0238 120.117 23.1009 118.833 21.6996C118.528 21.3272 118.243 20.9387 117.979 20.5358C117.857 20.3478 115.352 21.5217 115.087 21.6539C113.796 22.2229 112.696 23.1507 111.916 24.327C111.399 25.3435 111.072 26.4457 110.951 27.5795C110.655 29.1376 110.505 30.7199 110.503 32.3058C110.534 35.3296 114.457 35.3702 114.457 35.3702Z" fill="white"/>
<path d="M115.87 44.8583C114.94 44.9029 114.029 44.584 113.329 43.969C112.644 43.2709 112.254 42.3351 112.242 41.3568C112.239 41.3332 112.239 41.3093 112.242 41.2857L114.137 35.5887C113.172 35.4972 110.3 35.0043 110.275 32.321C110.277 30.7231 110.429 29.1289 110.727 27.5591C110.859 26.3917 111.203 25.2582 111.744 24.2151C112.529 23.0011 113.647 22.0393 114.966 21.4454C117.888 20.0021 118.081 20.2969 118.152 20.429C118.152 20.429 118.66 21.2218 118.986 21.5674C120.233 22.9348 121.912 23.8319 123.742 24.1084C123.778 24.1151 123.811 24.1302 123.84 24.1524C123.868 24.1745 123.891 24.2032 123.907 24.2359C123.922 24.2686 123.929 24.3045 123.928 24.3407C123.927 24.3768 123.917 24.4122 123.9 24.4438C123.512 25.1354 123.223 25.8778 123.041 26.6494C122.929 27.2154 122.914 27.7961 122.995 28.3672C123.072 29.1039 123.424 29.7844 123.981 30.2729C124.016 30.2967 124.043 30.33 124.059 30.3687C124.075 30.4075 124.08 30.4501 124.073 30.4914L122.406 41.2247C122.401 41.2551 122.391 41.2844 122.375 41.3111C121.704 42.3185 120.815 43.1615 119.773 43.7775C118.731 44.3934 117.564 44.7663 116.358 44.8685C116.201 44.8583 116.033 44.8583 115.87 44.8583ZM112.689 41.3975C112.713 42.2339 113.048 43.0313 113.629 43.6336C114.001 43.9424 114.435 44.1683 114.901 44.2962C115.367 44.4242 115.855 44.4512 116.333 44.3755C117.454 44.2718 118.539 43.9241 119.511 43.357C120.484 42.7899 121.321 42.0171 121.964 41.0925L123.605 30.5321C123.017 29.9704 122.643 29.2209 122.548 28.4129C122.455 27.7985 122.469 27.1728 122.589 26.563C122.752 25.8548 123.008 25.1713 123.351 24.5302C121.536 24.1914 119.88 23.2709 118.635 21.9079C118.371 21.6081 117.979 21.0287 117.827 20.8051C116.918 21.116 116.03 21.4861 115.169 21.913C113.93 22.4699 112.873 23.3646 112.12 24.4947C111.613 25.4912 111.29 26.5704 111.164 27.6811C110.873 29.2243 110.723 30.7911 110.717 32.3616C110.748 35.1161 114.274 35.1872 114.437 35.1923C114.473 35.1925 114.509 35.2014 114.54 35.2182C114.572 35.235 114.6 35.2592 114.62 35.2889C114.642 35.3184 114.657 35.3526 114.663 35.3888C114.669 35.425 114.666 35.4622 114.656 35.4972L112.689 41.3975Z" fill="#282834"/>
<path d="M121.76 29.4752C121.953 29.0485 122.275 28.6929 122.68 28.4588C123.072 28.255 123.497 28.1208 123.935 28.0624C124.171 28.0066 124.416 28.0066 124.652 28.0624C124.815 28.115 124.965 28.1996 125.094 28.3114C125.424 28.5414 125.66 28.8823 125.76 29.2719C125.801 29.5944 125.765 29.922 125.653 30.2273C125.558 30.5663 125.418 30.891 125.236 31.1929C125.049 31.4905 124.805 31.7479 124.517 31.9502C124.23 32.1525 123.905 32.2956 123.562 32.3713C123.218 32.4469 122.864 32.4536 122.518 32.3909C122.172 32.3282 121.842 32.1974 121.547 32.0061" fill="white"/>
<path d="M122.995 32.5958C122.442 32.5963 121.9 32.4375 121.435 32.1385C121.39 32.1093 121.358 32.0636 121.347 32.0112C121.336 31.9589 121.345 31.9042 121.374 31.8589C121.388 31.8362 121.406 31.8164 121.428 31.8009C121.45 31.7855 121.475 31.7745 121.501 31.7688C121.527 31.7631 121.554 31.7628 121.58 31.7678C121.606 31.7728 121.631 31.7831 121.653 31.798C121.927 31.9742 122.232 32.0945 122.552 32.1521C122.873 32.2096 123.201 32.2033 123.519 32.1334C124.149 31.983 124.696 31.5929 125.043 31.0458C125.216 30.7583 125.349 30.449 125.44 30.126C125.538 29.8529 125.573 29.5608 125.541 29.2722C125.448 28.9312 125.24 28.6329 124.952 28.4286C124.84 28.3358 124.713 28.2635 124.576 28.2151C124.37 28.17 124.156 28.17 123.951 28.2151C123.536 28.2727 123.134 28.3998 122.761 28.5912C122.39 28.8068 122.097 29.1365 121.928 29.5314C121.918 29.556 121.903 29.5784 121.884 29.5972C121.865 29.616 121.843 29.6308 121.818 29.6408C121.794 29.6507 121.767 29.6556 121.741 29.6552C121.714 29.6547 121.688 29.6489 121.664 29.6381C121.639 29.6287 121.616 29.6142 121.596 29.5955C121.577 29.5768 121.562 29.5543 121.552 29.5295C121.542 29.5046 121.537 29.4779 121.538 29.4511C121.539 29.4243 121.545 29.398 121.557 29.3738C121.763 28.8951 122.12 28.497 122.573 28.2405C122.985 28.027 123.43 27.8844 123.89 27.8187C124.157 27.7577 124.435 27.7577 124.703 27.8187C124.887 27.8819 125.059 27.9764 125.211 28.0982C125.579 28.3607 125.84 28.7467 125.948 29.1858C125.997 29.5387 125.959 29.8982 125.836 30.2327C125.736 30.5894 125.589 30.9312 125.399 31.2491C125.197 31.5694 124.933 31.8465 124.624 32.0646C124.314 32.2826 123.964 32.4373 123.595 32.5196C123.398 32.5669 123.197 32.5924 122.995 32.5958Z" fill="#282834"/>
<path d="M113.441 38.5313C114.891 38.6776 116.347 38.3186 117.562 37.5149C119.494 36.1681 119.595 34.4657 119.595 34.4657C117.977 35.1661 116.217 35.476 114.457 35.3703L113.441 38.5313Z" fill="#282834"/>
<path d="M114.02 38.7855C113.813 38.7879 113.606 38.776 113.4 38.7499C113.368 38.7455 113.337 38.7341 113.309 38.7165C113.282 38.6988 113.259 38.6753 113.241 38.6477C113.224 38.6201 113.212 38.589 113.208 38.5566C113.204 38.5243 113.207 38.4913 113.217 38.4602L114.234 35.3043C114.25 35.2579 114.28 35.2177 114.32 35.1894C114.36 35.1611 114.408 35.1462 114.457 35.1468C116.178 35.2307 117.895 34.9141 119.473 34.2218C119.507 34.2031 119.546 34.1934 119.585 34.1934C119.624 34.1934 119.662 34.2031 119.697 34.2218C119.729 34.2435 119.756 34.273 119.773 34.3077C119.791 34.3424 119.8 34.3811 119.798 34.42C119.798 34.4963 119.676 36.2699 117.679 37.6674C116.6 38.4011 115.325 38.7909 114.02 38.7855ZM113.73 38.3281C115.038 38.394 116.331 38.0376 117.42 37.3117C118.322 36.7257 118.982 35.8344 119.28 34.8012C117.793 35.3807 116.205 35.6554 114.61 35.6092L113.73 38.3281Z" fill="#282834"/>
<path d="M117.105 25.0997C117.105 25.0997 114.564 27.6407 114.92 28.2709C115.276 28.9011 116.673 28.7791 116.673 28.7791" fill="white"/>
<path d="M116.49 29.0231C116.053 29.0231 115.077 28.9571 114.732 28.3879C114.315 27.7069 116.145 25.7503 116.953 24.9423C116.973 24.9209 116.998 24.9039 117.026 24.8923C117.053 24.8807 117.083 24.8748 117.113 24.8748C117.143 24.8748 117.172 24.8807 117.2 24.8923C117.227 24.9039 117.252 24.9209 117.273 24.9423C117.315 24.985 117.338 25.0425 117.338 25.1023C117.338 25.1622 117.315 25.2197 117.273 25.2624C115.982 26.5634 114.966 27.8898 115.113 28.1541C115.352 28.5556 116.333 28.5861 116.638 28.5708C116.697 28.5693 116.755 28.5905 116.799 28.6302C116.844 28.6699 116.871 28.725 116.876 28.7843C116.878 28.8136 116.873 28.843 116.863 28.8706C116.853 28.8983 116.838 28.9237 116.818 28.9454C116.798 28.9671 116.774 28.9847 116.748 28.9972C116.721 29.0097 116.692 29.0167 116.663 29.018L116.49 29.0231Z" fill="#282834"/>
<path d="M113.207 30.268L118.152 30.202C118.152 30.202 117.929 33.5561 115.052 33.7594C112.176 33.9626 113.207 30.268 113.207 30.268Z" fill="#282834"/>
<path d="M118.274 25.1047C118.339 24.9649 118.439 24.8445 118.565 24.7553C118.69 24.6662 118.837 24.6115 118.99 24.5965C119.56 24.505 119.849 25.1708 119.849 25.1708" fill="white"/>
<path d="M119.85 25.3741C119.806 25.375 119.763 25.3629 119.726 25.3394C119.689 25.3159 119.659 25.282 119.641 25.242C119.641 25.242 119.418 24.7338 119.026 24.7999C118.912 24.8111 118.802 24.8516 118.708 24.9174C118.613 24.9833 118.538 25.0723 118.488 25.1759C118.467 25.2322 118.425 25.2781 118.371 25.3038C118.317 25.3295 118.255 25.3328 118.198 25.3132C118.143 25.2935 118.098 25.2534 118.073 25.2012C118.047 25.149 118.043 25.0889 118.061 25.0336C118.134 24.8514 118.256 24.6924 118.413 24.5734C118.569 24.4545 118.755 24.38 118.95 24.3577C119.682 24.2358 120.038 25.0286 120.053 25.0641C120.065 25.0912 120.071 25.1202 120.071 25.1497C120.072 25.1792 120.067 25.2084 120.056 25.2358C120.045 25.2632 120.029 25.2882 120.008 25.3093C119.988 25.3304 119.963 25.3473 119.936 25.3589L119.85 25.3741Z" fill="#282834"/>
<path d="M113.695 24.6725C113.76 24.5327 113.86 24.4123 113.986 24.3231C114.111 24.234 114.258 24.1792 114.411 24.1643C114.981 24.0677 115.27 24.7386 115.27 24.7386" fill="white"/>
<path d="M115.271 24.9469C115.226 24.9473 115.183 24.9345 115.146 24.9101C115.109 24.8856 115.08 24.8507 115.062 24.8097C115.062 24.8097 114.839 24.3015 114.447 24.3727C114.333 24.3829 114.223 24.423 114.128 24.489C114.034 24.555 113.958 24.6445 113.909 24.7487C113.888 24.805 113.846 24.8509 113.792 24.8766C113.738 24.9022 113.676 24.9056 113.619 24.8859C113.564 24.8653 113.519 24.8242 113.493 24.7711C113.468 24.7181 113.464 24.6573 113.482 24.6013C113.556 24.4197 113.678 24.2613 113.835 24.1425C113.991 24.0236 114.176 23.9487 114.371 23.9254C115.103 23.8035 115.459 24.6013 115.474 24.6318C115.486 24.6588 115.493 24.6879 115.494 24.7176C115.495 24.7472 115.49 24.7768 115.479 24.8043C115.468 24.8319 115.452 24.857 115.431 24.878C115.41 24.899 115.385 24.9156 115.357 24.9266C115.33 24.94 115.301 24.9469 115.271 24.9469Z" fill="#282834"/>
<path d="M127.615 73.0079L123.57 126.984L56.3242 113.237L101.026 67.377L127.615 73.0079Z" fill="#282834"/>
<path d="M98.6675 33.4136L19.6929 46.576L54.4336 11.2661L98.6675 33.4136Z" fill="#282834"/>
<path d="M19.6931 46.8306C19.6429 46.8309 19.5938 46.8163 19.5519 46.7887C19.51 46.7612 19.4772 46.7218 19.4576 46.6756C19.4381 46.6294 19.4326 46.5784 19.4419 46.5292C19.4513 46.4799 19.475 46.4344 19.5101 46.3986L54.2509 11.0836C54.2889 11.0459 54.3379 11.0212 54.3908 11.013C54.4438 11.0047 54.4979 11.0135 54.5456 11.0379L98.7593 33.1904C98.8087 33.2124 98.8492 33.2506 98.8741 33.2986C98.899 33.3466 98.9069 33.4016 98.8965 33.4547C98.8916 33.5075 98.8704 33.5574 98.8358 33.5975C98.8011 33.6376 98.7548 33.6658 98.7034 33.6783L19.7337 46.8255L19.6931 46.8306ZM54.4897 11.5766L20.4402 46.1953L97.8547 33.2921L54.4897 11.5766Z" fill="#282834"/>
<path d="M105.96 86.394L31.4628 99.7953L19.7944 47.0439L98.7285 33.8814L105.96 86.394Z" fill="#282834"/>
<path d="M31.4676 100.049C31.4095 100.051 31.3528 100.031 31.3073 99.9953C31.2618 99.9591 31.2304 99.9081 31.2186 99.8512L19.5299 47.0947C19.516 47.0282 19.5288 46.9588 19.5655 46.9016C19.5847 46.8717 19.61 46.8463 19.6398 46.827C19.6696 46.8077 19.7032 46.795 19.7383 46.7898L98.7028 33.6273C98.7707 33.6169 98.8399 33.6333 98.8959 33.6731C98.9237 33.6935 98.947 33.7193 98.9645 33.749C98.982 33.7787 98.9932 33.8117 98.9976 33.8459L106.229 86.3585C106.234 86.3908 106.233 86.4239 106.225 86.4557C106.217 86.4876 106.204 86.5176 106.184 86.544C106.165 86.5704 106.14 86.5928 106.112 86.6098C106.084 86.6268 106.053 86.6381 106.021 86.643L31.5082 100.044L31.4676 100.049ZM20.0991 47.2472L31.6607 99.5056L105.675 86.1857L98.5148 34.1864L20.0991 47.2472Z" fill="#282834"/>
<path d="M37.7187 82.3385C37.7187 82.3385 23.9973 39.9849 17.3906 27.1071L90.9428 7.07373L95.5166 72.6319L37.7187 82.3385Z" fill="#FFC74F"/>
<path d="M30.2739 34.5164C30.2174 34.5167 30.1624 34.4978 30.1181 34.4627C30.0737 34.4276 30.0427 34.3784 30.03 34.3233C30.0128 34.2586 30.0219 34.1898 30.0552 34.1318C30.0885 34.0737 30.1433 34.0311 30.2078 34.0133L84.2958 19.992C84.3632 19.9751 84.4346 19.9858 84.4941 20.0215C84.5537 20.0572 84.5966 20.1152 84.6135 20.1826C84.6303 20.25 84.6197 20.3213 84.584 20.3809C84.5482 20.4404 84.4903 20.4834 84.4229 20.5002L30.3349 34.5063L30.2739 34.5164Z" fill="white"/>
<path d="M32.5603 43.3845C32.5028 43.3855 32.4468 43.3662 32.4022 43.3299C32.3576 43.2937 32.3272 43.2428 32.3164 43.1863C32.3089 43.1539 32.3081 43.1204 32.3138 43.0876C32.3195 43.0549 32.3317 43.0236 32.3497 42.9957C32.3677 42.9677 32.3911 42.9437 32.4186 42.9249C32.446 42.9062 32.4769 42.8931 32.5095 42.8865L84.8798 31.1368C84.9472 31.1227 85.0174 31.1359 85.0751 31.1735C85.1328 31.2112 85.1731 31.2702 85.1873 31.3376C85.2014 31.405 85.1882 31.4752 85.1506 31.5329C85.1129 31.5906 85.0539 31.6309 84.9865 31.645L32.6366 43.3794L32.5603 43.3845Z" fill="white"/>
<path d="M37.0476 51.6837C36.9888 51.6847 36.9315 51.6648 36.8859 51.6276C36.8403 51.5904 36.8094 51.5382 36.7986 51.4804C36.7919 51.4477 36.7917 51.414 36.7981 51.3812C36.8044 51.3485 36.8172 51.3173 36.8356 51.2894C36.854 51.2616 36.8777 51.2376 36.9054 51.2189C36.933 51.2003 36.9641 51.1872 36.9968 51.1806L87.0802 41.4536C87.1126 41.4469 87.1459 41.4468 87.1784 41.4532C87.2108 41.4596 87.2417 41.4724 87.2691 41.4909C87.2965 41.5093 87.32 41.533 87.3382 41.5607C87.3564 41.5883 87.3689 41.6193 87.3749 41.6518C87.3823 41.6845 87.383 41.7184 87.377 41.7514C87.3709 41.7845 87.3583 41.8159 87.3398 41.8439C87.3212 41.8719 87.2973 41.8959 87.2692 41.9144C87.2412 41.9329 87.2098 41.9456 87.1767 41.9516L37.0934 51.6786L37.0476 51.6837Z" fill="white"/>
<path d="M39.4315 62.2747C39.3641 62.2801 39.2973 62.2585 39.2459 62.2146C39.1944 62.1708 39.1625 62.1083 39.1571 62.0409C39.1517 61.9735 39.1733 61.9068 39.2171 61.8553C39.261 61.8038 39.3234 61.7719 39.3908 61.7665L86.8976 54.0367C86.965 54.026 87.0339 54.0424 87.0892 54.0824C87.1445 54.1224 87.1816 54.1828 87.1924 54.2502C87.2032 54.3176 87.1867 54.3865 87.1467 54.4418C87.1067 54.497 87.0463 54.5342 86.9789 54.5449L39.4721 62.2696L39.4315 62.2747Z" fill="white"/>
<path d="M64.4756 67.4482L19.7944 47.0439L31.4628 99.7953L105.96 86.394L98.7285 33.8814L64.4756 67.4482Z" fill="white"/>
<path d="M31.4675 100.049C31.4094 100.05 31.3527 100.031 31.3072 99.9951C31.2617 99.9589 31.2303 99.9079 31.2185 99.851L19.5298 47.0945C19.5197 47.0482 19.5227 47 19.5385 46.9553C19.5543 46.9106 19.5823 46.8713 19.6193 46.8417C19.6563 46.8121 19.7008 46.7934 19.7479 46.7878C19.7949 46.7822 19.8426 46.7898 19.8856 46.8099L64.4092 67.138L98.5502 33.6779C98.5838 33.6443 98.6262 33.6207 98.6725 33.6099C98.7188 33.5991 98.7672 33.6015 98.8122 33.6169C98.8572 33.6322 98.897 33.6599 98.927 33.6968C98.9571 33.7336 98.9762 33.7781 98.9822 33.8253L106.214 86.3379C106.219 86.3702 106.218 86.4033 106.21 86.4351C106.202 86.467 106.188 86.497 106.169 86.5234C106.149 86.5499 106.125 86.5722 106.097 86.5892C106.069 86.6062 106.038 86.6175 106.006 86.6225L31.5081 100.044L31.4675 100.049ZM20.1498 47.4858L31.6606 99.5054L105.675 86.1854L98.5604 34.4148L64.6531 67.6309C64.6159 67.6665 64.5688 67.6899 64.5179 67.6981C64.4671 67.7062 64.415 67.6988 64.3685 67.6767L20.1498 47.4858Z" fill="#282834"/>
<path d="M105.965 86.3938L31.4678 99.7951L64.4806 67.448L105.965 86.3938Z" fill="white"/>
<path d="M31.468 100.049C31.4209 100.05 31.3746 100.038 31.3342 100.013C31.2938 99.9891 31.261 99.9541 31.2393 99.9123C31.2147 99.8643 31.2064 99.8096 31.2155 99.7564C31.2247 99.7033 31.2509 99.6545 31.2901 99.6175L64.3233 67.2654C64.3605 67.2298 64.4077 67.2064 64.4585 67.1982C64.5093 67.1901 64.5614 67.1975 64.6079 67.2196L106.087 86.1603C106.137 86.1834 106.177 86.2213 106.204 86.2687C106.23 86.3161 106.241 86.3707 106.235 86.4246C106.228 86.4778 106.205 86.5276 106.169 86.5668C106.132 86.6061 106.084 86.6328 106.031 86.6431L31.5137 100.049H31.468ZM64.5317 67.7532L32.2354 99.399L105.117 86.2874L64.5317 67.7532Z" fill="#282834"/>
<path d="M105.965 86.3938L31.4678 99.7951L64.4806 67.448L105.965 86.3938Z" fill="white"/>
<path d="M31.468 100.049C31.4209 100.05 31.3746 100.038 31.3342 100.013C31.2938 99.9891 31.261 99.9541 31.2393 99.9123C31.2147 99.8643 31.2064 99.8096 31.2155 99.7564C31.2247 99.7033 31.2509 99.6545 31.2901 99.6175L64.3233 67.2654C64.3605 67.2298 64.4077 67.2064 64.4585 67.1982C64.5093 67.1901 64.5614 67.1975 64.6079 67.2196L106.087 86.1603C106.137 86.1834 106.177 86.2213 106.204 86.2687C106.23 86.3161 106.241 86.3707 106.235 86.4246C106.228 86.4778 106.205 86.5276 106.169 86.5668C106.132 86.6061 106.084 86.6328 106.031 86.6431L31.5137 100.049H31.468ZM64.5317 67.7532L32.2354 99.399L105.117 86.2874L64.5317 67.7532Z" fill="#282834"/>
<path d="M100.781 13.7057C100.781 13.7057 99.699 17.7713 96.2788 17.8729C96.2788 17.8729 99.8871 18.8893 100.644 22.274C100.98 21.3349 101.536 20.4896 102.264 19.8081C102.992 19.1267 103.873 18.6288 104.832 18.3557C103.85 17.9363 102.975 17.3002 102.274 16.4949C101.572 15.6896 101.062 14.7361 100.781 13.7057Z" fill="#E2E8F0"/>
<path d="M2.56641 44.5992C2.56641 44.5992 5.29545 48.5022 2.87641 51.5209C2.87641 51.5209 6.37792 49.1425 9.85403 50.9568C9.28857 49.9833 8.96362 48.889 8.90616 47.7646C8.84871 46.6403 9.06042 45.5185 9.5237 44.4925C9.5237 44.4925 6.55071 46.2915 2.56641 44.5992Z" fill="#E2E8F0"/>
<path d="M27.0465 12.7757C27.0465 12.7757 27.6207 19.5754 22.4727 21.5726C22.4727 21.5726 28.5152 21.1458 31.5187 25.8924C31.5187 25.8924 31.3052 20.6884 35.7571 17.6544C35.7164 17.6544 30.7462 17.7459 27.0465 12.7757Z" fill="#E2E8F0"/>
<path d="M124.855 46.9979C124.855 46.9979 85.3628 67.0261 79.3508 68.1747C73.3388 69.3232 66.1883 67.3158 66.4729 69.0335C66.7575 70.7513 70.193 71.605 70.193 71.605C70.193 71.605 59.3225 73.3228 59.8917 74.4713C60.4609 75.6198 67.6215 74.1816 67.6215 74.1816C67.6215 74.1816 58.7483 76.7582 60.7506 77.9017C62.7529 79.0451 69.0495 76.4736 69.0495 76.4736C69.0495 76.4736 59.6071 81.3371 62.1837 81.6217C64.7603 81.9063 69.3392 79.3348 69.3392 79.3348C69.3392 79.3348 62.1837 83.0549 65.0449 83.3394C67.9061 83.624 110.544 68.4593 124.855 59.8757" fill="white"/>
<path d="M65.1311 83.5989H65.0193C64.4857 83.543 64.1808 83.3601 64.1249 83.0552C64.0385 82.5978 64.6737 81.9575 65.558 81.307C64.4738 81.7277 63.3153 81.9231 62.153 81.8812C61.7617 81.8355 61.5381 81.6881 61.4924 81.4289C61.3501 80.6666 63.8504 79.0556 66.1729 77.7394C64.2062 78.3136 61.7821 78.7914 60.6234 78.1307C60.4911 78.0755 60.3796 77.9799 60.3047 77.8577C60.2299 77.7354 60.1956 77.5926 60.2066 77.4497C60.3032 76.6467 62.3665 75.7066 64.3536 74.9849C62.2699 75.2441 60.0389 75.3305 59.6628 74.5885C59.629 74.5234 59.6113 74.451 59.6113 74.3776C59.6113 74.3042 59.629 74.2319 59.6628 74.1667C60.1711 73.1503 66.3457 71.9967 69.1053 71.5342C68.0126 71.1226 66.422 70.3145 66.2136 69.0796C66.1925 68.9755 66.1962 68.8678 66.2244 68.7654C66.2527 68.663 66.3047 68.5687 66.3762 68.4901C66.8844 67.926 68.4395 68.0175 70.8077 68.1547C73.3081 68.297 76.398 68.4748 79.2947 67.9311C85.2 66.8029 124.337 46.9728 124.728 46.7746C124.789 46.7442 124.859 46.7389 124.924 46.7598C124.988 46.7807 125.042 46.8262 125.074 46.8864C125.104 46.9464 125.109 47.0159 125.088 47.0797C125.067 47.1435 125.022 47.1964 124.962 47.2269C123.346 48.0451 85.3677 67.2907 79.3913 68.4291C76.4539 68.9881 73.2928 68.8052 70.7518 68.6629C68.8562 68.5511 67.0674 68.4494 66.7269 68.8255C66.7073 68.8482 66.6938 68.8755 66.6875 68.9048C66.6813 68.9341 66.6826 68.9645 66.6913 68.9932C66.9047 70.2688 69.3085 71.1378 70.2233 71.3665C70.2907 71.3699 70.354 71.3999 70.3993 71.4499C70.4445 71.5 70.4681 71.5659 70.4647 71.6333C70.4613 71.7007 70.4313 71.764 70.3813 71.8093C70.3313 71.8545 70.2653 71.8781 70.1979 71.8747C65.5173 72.6116 60.3184 73.7906 60.0847 74.4157C60.3845 74.9748 64.1859 74.6241 67.5349 73.9533C67.5683 73.9453 67.6029 73.9439 67.6368 73.9493C67.6707 73.9546 67.7032 73.9666 67.7325 73.9846C67.7617 74.0025 67.7872 74.026 67.8073 74.0538C67.8275 74.0816 67.842 74.113 67.85 74.1464C67.858 74.1798 67.8594 74.2144 67.854 74.2483C67.8486 74.2822 67.8366 74.3147 67.8187 74.3439C67.8008 74.3732 67.7772 74.3986 67.7495 74.4188C67.7217 74.439 67.6903 74.4535 67.6569 74.4615C64.3586 75.4169 60.7555 76.8653 60.6742 77.5412C60.6742 77.6072 60.7758 77.6784 60.8419 77.719C62.397 78.6084 67.1995 76.9771 68.9172 76.2707C68.9787 76.2464 69.0472 76.2465 69.1086 76.2711C69.1701 76.2957 69.2197 76.3428 69.2476 76.4028C69.2742 76.4623 69.2769 76.5298 69.2552 76.5913C69.2334 76.6528 69.1888 76.7036 69.1307 76.7331C65.7105 78.4966 62.0158 80.7581 61.9548 81.3629C62.0267 81.3827 62.0996 81.3979 62.1734 81.4086C64.0944 81.622 67.2554 80.133 68.5818 79.4622L69.1815 79.142C69.2409 79.1115 69.3099 79.1056 69.3736 79.1256C69.4373 79.1455 69.4906 79.1898 69.522 79.2487C69.5382 79.2774 69.5485 79.309 69.5524 79.3417C69.5563 79.3743 69.5537 79.4075 69.5447 79.4391C69.5357 79.4708 69.5206 79.5004 69.5001 79.5261C69.4796 79.5519 69.4542 79.5733 69.4254 79.5892C69.3848 79.5892 69.151 79.7468 68.7851 79.9348C66.4118 81.2256 64.5111 82.5978 64.5873 82.984C64.5873 82.984 64.6788 83.0806 65.0346 83.1162H65.1616C66.6862 83.1162 77.1094 79.8027 90.5717 74.7206C97.9305 71.9459 115.982 64.9276 124.728 59.6829C124.756 59.6621 124.789 59.6474 124.823 59.6398C124.857 59.6321 124.893 59.6316 124.927 59.6384C124.962 59.6452 124.995 59.6591 125.024 59.6792C125.052 59.6993 125.077 59.7251 125.095 59.7551C125.114 59.7852 125.125 59.8186 125.13 59.8535C125.135 59.8883 125.132 59.9238 125.123 59.9576C125.113 59.9914 125.096 60.0229 125.074 60.05C125.052 60.077 125.024 60.0991 124.992 60.1149C111.19 68.3681 69.151 83.5989 65.1311 83.5989Z" fill="#282834"/>
<path d="M117.557 63.9263C117.557 63.9263 111.459 49.6204 112.023 49.4272C112.587 49.2341 124.22 41.606 125.19 42.1803C126.161 42.7545 129.764 53.8181 128.621 57.0604C127.477 60.3028 117.557 63.9263 117.557 63.9263Z" fill="#FF7500"/>
<path d="M119.082 63.9976C119.027 63.9974 118.974 63.9802 118.929 63.9484C118.885 63.9165 118.851 63.8715 118.833 63.8197C118.812 63.7537 118.818 63.682 118.849 63.6202C118.881 63.5585 118.935 63.5115 119.001 63.4894C119.087 63.4589 127.554 60.6028 130.898 56.3237C130.919 56.2969 130.946 56.2746 130.975 56.258C131.005 56.2414 131.038 56.2309 131.072 56.2271C131.106 56.2234 131.141 56.2264 131.174 56.236C131.207 56.2456 131.237 56.2616 131.264 56.2831C131.292 56.3035 131.315 56.3294 131.332 56.3592C131.35 56.389 131.361 56.422 131.365 56.4562C131.37 56.4904 131.367 56.5252 131.357 56.5583C131.348 56.5915 131.331 56.6223 131.31 56.649C127.869 61.05 119.519 63.8705 119.169 63.9874C119.141 63.9958 119.111 63.9992 119.082 63.9976Z" fill="#282834"/>
<path d="M125.846 32.9104C125.784 32.9091 125.725 32.8856 125.679 32.8442C125.633 32.8028 125.603 32.7462 125.595 32.6847C125.587 32.6233 125.601 32.561 125.635 32.5091C125.669 32.4573 125.721 32.4194 125.78 32.4022C126.729 32.1192 127.602 31.6265 128.335 30.9606C129.068 30.2947 129.641 29.4726 130.014 28.5551C130.754 26.6799 130.931 24.6292 130.522 22.6549C130.237 20.7464 129.408 18.9605 128.133 17.5119C127.495 16.8107 126.706 16.2634 125.826 15.9113C124.946 15.5591 123.997 15.4114 123.051 15.4791L122.68 15.5299C122.403 15.5764 122.123 15.6018 121.842 15.6061C121.499 15.5896 121.159 15.5403 120.825 15.4588L120.607 15.413C118.815 15.0548 116.963 15.1549 115.22 15.704C113.478 16.2531 111.903 17.2334 110.641 18.5539C109.378 19.8745 108.47 21.4924 108 23.2577C107.53 25.023 107.514 26.8784 107.952 28.6517C108.074 29.1599 108.369 29.9679 108.994 30.0442C109.029 30.0473 109.062 30.0573 109.092 30.0738C109.123 30.0902 109.15 30.1127 109.171 30.1398C109.192 30.1669 109.208 30.1981 109.217 30.2315C109.226 30.2648 109.228 30.2997 109.223 30.3338C109.219 30.368 109.209 30.401 109.192 30.431C109.175 30.4611 109.153 30.4875 109.126 30.5088C109.099 30.5301 109.068 30.5458 109.035 30.555C109.002 30.5642 108.967 30.5668 108.933 30.5625C108.237 30.4761 107.709 29.846 107.444 28.7787C106.98 26.9173 106.994 24.9686 107.485 23.1141C107.976 21.2595 108.928 19.5593 110.253 18.1716C111.578 16.7839 113.232 15.7539 115.062 15.1774C116.892 14.6009 118.838 14.4967 120.719 14.8743L120.947 14.9201C121.253 14.9973 121.567 15.0433 121.882 15.0573C122.134 15.0506 122.386 15.0268 122.634 14.9861C122.767 14.9861 122.894 14.9455 123.026 14.9353C124.051 14.8529 125.081 15.0086 126.036 15.3903C126.99 15.7721 127.844 16.3695 128.53 17.1358C129.883 18.656 130.765 20.5362 131.071 22.5482C131.496 24.6246 131.303 26.7801 130.517 28.7483C130.115 29.7386 129.495 30.6258 128.703 31.3437C127.911 32.0616 126.968 32.5919 125.943 32.8952L125.846 32.9104Z" fill="#282834"/>
<path d="M121.877 15.3319C121.877 15.3319 124.52 13.3702 128.814 14.4171C133.108 15.464 134.729 23.2903 130.72 27.4881C130.72 27.4881 131.345 16.0484 121.877 15.3319Z" fill="#282834"/>
<path d="M137.159 39.8681H137.133C135.1 39.7429 133.152 39.0079 131.543 37.759C130.736 37.1227 130.087 36.3087 129.646 35.3805C129.206 34.4524 128.985 33.435 129.002 32.4077C129.002 32.3729 129.01 32.3387 129.024 32.3071C129.039 32.2754 129.059 32.2471 129.085 32.2237C129.111 32.2004 129.141 32.1826 129.174 32.1714C129.207 32.1602 129.242 32.1559 129.276 32.1586C129.311 32.1599 129.345 32.1681 129.376 32.1827C129.407 32.1972 129.435 32.2179 129.459 32.2435C129.482 32.269 129.5 32.299 129.511 32.3315C129.523 32.3641 129.527 32.3986 129.525 32.4331C129.511 33.3775 129.714 34.3126 130.12 35.1657C130.525 36.0188 131.122 36.7671 131.863 37.3525C133.104 38.3289 134.576 38.9695 136.137 39.2125C135.708 38.7323 135.435 38.1333 135.354 37.4948C135.271 36.5319 135.419 35.5631 135.786 34.6692C136.399 33.1507 137.146 31.6898 138.017 30.3037C139.283 28.1438 140.477 26.1059 140.741 23.7377C140.896 22.3698 140.713 20.9848 140.21 19.7037C139.706 18.4226 138.896 17.2844 137.85 16.3886C136.805 15.4927 135.556 14.8664 134.213 14.5644C132.87 14.2624 131.473 14.2939 130.145 14.6561C130.078 14.6735 130.006 14.6642 129.946 14.6301C129.885 14.596 129.84 14.5398 129.82 14.4732C129.811 14.4402 129.808 14.4056 129.812 14.3716C129.817 14.3375 129.828 14.3047 129.845 14.2749C129.862 14.2451 129.884 14.219 129.912 14.1981C129.939 14.1772 129.97 14.1618 130.003 14.153C131.415 13.7676 132.9 13.7339 134.328 14.0549C135.756 14.3759 137.083 15.0419 138.194 15.9946C139.306 16.9472 140.166 18.1576 140.702 19.5198C141.237 20.882 141.43 22.3546 141.265 23.8089C140.985 26.2838 139.705 28.464 138.47 30.5781C137.627 31.9338 136.904 33.3605 136.31 34.8419C135.964 35.6542 135.825 36.5393 135.903 37.4185C135.943 37.8317 136.088 38.2277 136.326 38.5679C136.564 38.9081 136.886 39.181 137.26 39.3599C137.316 39.3832 137.362 39.4251 137.391 39.4785C137.42 39.5319 137.43 39.5936 137.418 39.6532C137.407 39.7128 137.375 39.7667 137.329 39.8058C137.283 39.8449 137.224 39.8669 137.164 39.8681H137.159Z" fill="#282834"/>
<path d="M113.837 51.5516C113.772 51.563 113.705 51.5497 113.65 51.5143C113.594 51.4788 113.554 51.4239 113.536 51.3602C113.519 51.2965 113.527 51.2286 113.557 51.17C113.587 51.1114 113.638 51.0662 113.7 51.0434L124.144 44.6044C124.203 44.5686 124.274 44.5575 124.342 44.5737C124.409 44.5898 124.468 44.6319 124.505 44.6908C124.523 44.7201 124.535 44.7527 124.541 44.7868C124.547 44.8209 124.545 44.8558 124.537 44.8895C124.529 44.9231 124.515 44.9547 124.494 44.9826C124.474 45.0105 124.448 45.0339 124.418 45.0517L113.975 51.4906C113.936 51.5235 113.888 51.5447 113.837 51.5516Z" fill="#282834"/>
<path d="M0.233775 70.5431C0.171774 70.5431 0.112312 70.5185 0.0684708 70.4747C0.0246298 70.4308 0 70.3714 0 70.3094C0 70.2474 0.0246298 70.1879 0.0684708 70.144C0.112312 70.1002 0.171774 70.0756 0.233775 70.0756L15.9881 69.2167C16.0195 69.2131 16.0513 69.2162 16.0814 69.2258C16.1116 69.2355 16.1393 69.2514 16.1629 69.2725C16.1864 69.2936 16.2052 69.3195 16.218 69.3484C16.2308 69.3774 16.2373 69.4087 16.2371 69.4403C16.2399 69.5015 16.2185 69.5613 16.1777 69.607C16.1368 69.6526 16.0797 69.6803 16.0185 69.6843L0.264266 70.5431H0.233775Z" fill="#E2E8F0"/>
<path d="M38.0086 118.909C37.9636 118.91 37.9194 118.897 37.8815 118.873C37.8297 118.839 37.7932 118.786 37.7799 118.725C37.7666 118.664 37.7776 118.601 37.8104 118.548L45.5401 106.529C45.5558 106.501 45.577 106.477 45.6024 106.457C45.6279 106.438 45.657 106.424 45.688 106.416C45.7191 106.409 45.7513 106.407 45.7829 106.413C45.8144 106.418 45.8445 106.43 45.8713 106.447C45.8981 106.465 45.9211 106.487 45.9387 106.514C45.9564 106.541 45.9684 106.571 45.9741 106.602C45.9797 106.634 45.9788 106.666 45.9715 106.697C45.9642 106.728 45.9505 106.757 45.9314 106.783L38.2271 118.802C38.204 118.838 38.1713 118.867 38.1328 118.886C38.0943 118.905 38.0513 118.913 38.0086 118.909Z" fill="#E2E8F0"/>
<path d="M8.8172 99.4495C8.77552 99.4491 8.7347 99.4376 8.69895 99.4162C8.66321 99.3948 8.63385 99.3641 8.61392 99.3275C8.59879 99.3009 8.58914 99.2716 8.58556 99.2412C8.58197 99.2108 8.58452 99.18 8.59305 99.1507C8.60158 99.1213 8.61592 99.0939 8.63522 99.0702C8.65451 99.0464 8.67838 99.0268 8.7054 99.0124L20.4398 92.4261C20.4946 92.3967 20.5587 92.3898 20.6184 92.4069C20.6782 92.424 20.729 92.4637 20.76 92.5176C20.7754 92.5443 20.7854 92.5738 20.7894 92.6043C20.7935 92.6349 20.7914 92.6659 20.7834 92.6957C20.7753 92.7254 20.7615 92.7533 20.7427 92.7777C20.7238 92.8021 20.7003 92.8225 20.6736 92.8378L8.93917 99.4444C8.89968 99.4569 8.85759 99.4586 8.8172 99.4495Z" fill="#E2E8F0"/>
<path d="M95.8166 8.1561C95.779 8.156 95.7419 8.1468 95.7086 8.12929C95.6752 8.11179 95.6466 8.08649 95.6252 8.05556C95.6037 8.02462 95.5901 7.98896 95.5853 7.9516C95.5806 7.91425 95.585 7.87631 95.5981 7.84101L98.4593 0.136664C98.4838 0.0829196 98.5278 0.0404625 98.5824 0.0178308C98.637 -0.00480093 98.6981 -0.00592851 98.7534 0.0146757C98.8088 0.0352798 98.8543 0.076087 98.8808 0.12889C98.9074 0.181692 98.9129 0.242573 98.8963 0.299288L96.0351 8.02397C96.016 8.06523 95.985 8.09984 95.946 8.12338C95.9071 8.14691 95.8621 8.15831 95.8166 8.1561Z" fill="#E2E8F0"/>
<path d="M139.029 54.8041C138.974 54.8048 138.921 54.7856 138.879 54.7502C138.837 54.7147 138.809 54.6653 138.801 54.611C138.795 54.5806 138.796 54.5495 138.803 54.5195C138.81 54.4895 138.823 54.4612 138.841 54.4362C138.859 54.4111 138.882 54.3899 138.908 54.3737C138.934 54.3575 138.963 54.3466 138.994 54.3416L151.297 52.3088C151.358 52.2999 151.421 52.3151 151.471 52.3511C151.521 52.3871 151.555 52.4412 151.567 52.5019C151.572 52.5323 151.571 52.5634 151.564 52.5934C151.557 52.6234 151.544 52.6517 151.526 52.6768C151.508 52.7018 151.485 52.723 151.459 52.7392C151.433 52.7555 151.404 52.7664 151.374 52.7713L139.065 54.7787L139.029 54.8041Z" fill="#E2E8F0"/>
<path d="M138.744 105.746C138.709 105.747 138.674 105.739 138.642 105.723C138.61 105.707 138.582 105.684 138.561 105.655L130.832 95.9278C130.794 95.8783 130.777 95.8161 130.785 95.7544C130.793 95.6927 130.824 95.6365 130.872 95.5975C130.896 95.5781 130.923 95.5637 130.952 95.555C130.981 95.5463 131.012 95.5435 131.042 95.5468C131.073 95.5501 131.102 95.5595 131.129 95.5743C131.155 95.5891 131.179 95.6091 131.198 95.6331L138.927 105.365C138.947 105.389 138.961 105.417 138.969 105.447C138.978 105.477 138.98 105.508 138.976 105.539C138.972 105.57 138.962 105.599 138.947 105.626C138.932 105.653 138.911 105.677 138.887 105.695C138.846 105.727 138.796 105.745 138.744 105.746Z" fill="#E2E8F0"/>
<path d="M18.4475 23.1226C18.3916 23.1233 18.3373 23.1034 18.2951 23.0667L12.7709 18.3201C12.7283 18.2756 12.7046 18.2165 12.7046 18.1549C12.7046 18.0934 12.7283 18.0342 12.7709 17.9898C12.7905 17.9657 12.8147 17.946 12.8422 17.9316C12.8696 17.9172 12.8997 17.9086 12.9306 17.9062C12.9615 17.9039 12.9926 17.9078 13.0219 17.9178C13.0512 17.9278 13.0782 17.9436 13.1012 17.9643L18.6254 22.711C18.6494 22.7305 18.6692 22.7548 18.6836 22.7822C18.6979 22.8097 18.7065 22.8398 18.7089 22.8707C18.7113 22.9016 18.7074 22.9326 18.6974 22.962C18.6874 22.9913 18.6715 23.0183 18.6508 23.0413C18.6267 23.0711 18.5954 23.0943 18.5598 23.1085C18.5242 23.1228 18.4855 23.1276 18.4475 23.1226Z" fill="#E2E8F0"/>
<path d="M115.708 82.0081C115.665 82.0083 115.623 81.9978 115.586 81.9776C115.557 81.9622 115.531 81.941 115.51 81.9155C115.489 81.8899 115.473 81.8604 115.464 81.8287C115.454 81.797 115.451 81.7637 115.455 81.7308C115.458 81.6979 115.468 81.6661 115.484 81.6371L121.018 71.5239C121.045 71.4744 121.088 71.4354 121.139 71.4133C121.191 71.3912 121.249 71.3871 121.303 71.4019C121.358 71.4148 121.406 71.446 121.44 71.4905C121.475 71.5349 121.493 71.5898 121.491 71.6459V80.6106C121.491 80.678 121.464 80.7426 121.417 80.7902C121.369 80.8379 121.304 80.8647 121.237 80.8647C121.17 80.8647 121.105 80.8379 121.057 80.7902C121.01 80.7426 120.983 80.678 120.983 80.6106V72.6369L115.901 81.8811C115.881 81.916 115.853 81.9457 115.82 81.9678C115.786 81.9899 115.748 82.0037 115.708 82.0081Z" fill="white"/>
</svg>
